{"glyphs":{"0":{"ha":822,"x_min":0,"x_max":0,"o":"m 367 938 l 374 917 l 370 916 l 367 916 z m 370 916 l 251 876 l 170 755 l 128 545 l 128 419 l 170 208 l 251 88 l 370 48 l 450 48 l 570 88 l 650 208 l 692 419 l 692 545 l 650 755 l 570 876 l 450 916 z m 367 938 l 367 959 l 454 959 l 457 959 l 461 958 l 591 915 l 598 912 l 602 906 l 689 776 l 691 772 l 692 768 l 735 551 l 736 549 l 736 547 l 736 417 l 736 415 l 735 412 l 692 195 l 691 191 l 689 188 l 602 57 l 598 51 l 591 49 l 461 5 l 457 4 l 454 4 l 367 4 l 363 4 l 360 5 l 230 49 l 223 51 l 219 57 l 132 188 l 129 191 l 129 195 l 85 412 l 85 415 l 85 417 l 85 547 l 85 549 l 85 551 l 129 768 l 129 772 l 132 776 l 219 906 l 223 912 l 230 915 l 360 958 z "},"1":{"ha":424,"x_min":0,"x_max":0,"o":"m 101 764 l 92 783 l 175 825 l 303 953 l 340 990 l 340 938 l 340 26 l 318 26 l 297 26 l 297 885 l 204 792 l 201 789 l 198 788 l 111 744 z "},"2":{"ha":843,"x_min":0,"x_max":0,"o":"m 189 720 l 167 720 l 167 764 l 167 769 l 169 774 l 213 860 l 214 864 l 217 866 l 260 909 l 263 912 l 266 914 l 353 957 l 357 959 l 362 959 l 536 959 l 541 959 l 546 957 l 633 914 l 636 912 l 638 909 l 682 866 l 684 864 l 686 860 l 729 774 l 731 769 l 731 764 l 731 677 l 731 672 l 729 667 l 686 581 l 685 579 l 684 578 l 598 448 l 596 446 l 595 445 l 198 48 l 753 48 l 753 26 l 753 4 l 145 4 l 93 4 l 130 41 l 563 474 l 647 601 l 688 682 l 688 759 l 648 838 l 610 876 l 531 916 l 368 916 l 289 876 l 250 838 l 211 759 l 211 720 z "},"3":{"ha":828,"x_min":0,"x_max":0,"o":"m 196 938 l 196 959 l 674 959 l 717 959 l 691 924 l 457 612 l 544 612 l 549 612 l 553 610 l 640 566 l 643 565 l 646 562 l 689 519 l 693 515 l 695 510 l 738 380 l 739 377 l 739 373 l 739 286 l 739 283 l 738 280 l 695 149 l 693 145 l 689 141 l 602 54 l 599 50 l 594 49 l 464 5 l 460 4 l 457 4 l 327 4 l 323 4 l 320 5 l 190 49 l 185 50 l 181 54 l 138 98 l 135 100 l 134 103 l 90 190 l 110 200 l 129 209 l 171 126 l 208 88 l 330 48 l 453 48 l 575 88 l 655 168 l 696 290 l 696 370 l 655 492 l 618 529 l 539 569 l 414 569 l 370 569 l 396 603 l 631 916 l 196 916 z "},"4":{"ha":874,"x_min":0,"x_max":0,"o":"m 566 938 l 584 925 l 175 352 l 783 352 l 783 330 l 783 308 l 132 308 l 90 308 l 115 342 l 549 950 z m 566 938 l 588 938 l 588 26 l 566 26 l 545 26 l 545 938 z m 566 938 l 588 938 l 588 26 l 566 26 l 545 26 l 545 938 z "},"5":{"ha":828,"x_min":0,"x_max":0,"o":"m 631 938 l 631 916 l 216 916 l 181 606 l 185 609 l 190 611 l 320 654 l 323 655 l 327 655 l 457 655 l 460 655 l 464 654 l 594 611 l 599 609 l 602 606 l 689 519 l 693 515 l 695 510 l 738 380 l 739 377 l 739 373 l 739 286 l 739 283 l 738 280 l 695 149 l 693 145 l 689 141 l 602 54 l 599 50 l 594 49 l 464 5 l 460 4 l 457 4 l 327 4 l 323 4 l 320 5 l 190 49 l 185 50 l 181 54 l 138 98 l 135 100 l 134 103 l 90 190 l 110 200 l 129 209 l 171 126 l 208 88 l 330 48 l 453 48 l 575 88 l 655 168 l 696 290 l 696 370 l 655 492 l 575 571 l 453 612 l 330 612 l 208 571 l 168 532 l 125 488 l 132 549 l 175 940 l 177 959 l 196 959 l 631 959 z "},"6":{"ha":782,"x_min":0,"x_max":0,"o":"m 107 332 b 106 330 107 332 107 331 b 107 332 106 330 107 331 z m 107 332 b 129 328 110 340 120 363 l 169 167 l 248 88 l 370 48 l 407 48 l 529 88 l 608 168 l 649 290 l 649 326 l 608 448 l 529 528 l 407 569 l 370 569 l 248 528 l 169 448 b 107 332 154 403 122 374 z m 129 465 l 131 472 l 225 566 l 363 612 l 414 612 l 552 566 l 646 472 l 692 333 l 692 283 l 646 145 l 552 50 l 414 4 l 363 4 l 225 50 l 130 145 l 85 327 l 85 549 l 129 772 l 223 912 l 363 959 l 457 959 l 599 912 l 647 817 l 608 798 l 568 876 l 450 916 l 370 916 l 251 876 l 170 755 l 128 545 z "},"7":{"ha":813,"x_min":0,"x_max":0,"o":"m 699 938 l 719 928 l 285 17 l 265 26 l 246 35 l 680 947 z m 92 938 l 92 959 l 699 959 l 699 938 l 699 916 l 92 916 z m 92 938 l 92 959 l 699 959 l 699 938 l 699 916 l 92 916 z "},"8":{"ha":825,"x_min":0,"x_max":0,"o":"m 375 526 l 250 485 l 169 404 l 130 325 l 130 205 l 169 126 l 206 88 l 328 48 l 495 48 l 617 88 l 654 126 l 694 205 l 694 325 l 654 404 l 574 485 z m 498 555 l 597 522 l 690 430 l 737 335 l 737 195 l 690 100 l 640 50 l 502 4 l 321 4 l 183 50 l 133 100 l 86 195 l 86 335 l 133 430 l 226 522 l 328 556 l 274 570 l 178 618 l 130 715 l 130 812 l 179 912 l 318 958 l 325 938 l 325 959 l 502 959 l 644 912 l 694 812 l 694 715 l 645 618 l 549 570 z m 412 580 l 534 611 l 612 650 l 650 726 l 650 802 l 613 876 l 495 916 l 328 916 l 210 876 l 173 802 l 173 726 l 211 650 l 289 611 z m 328 916 l 325 916 l 325 938 l 332 917 z "},"9":{"ha":782,"x_min":0,"x_max":0,"o":"m 695 627 l 664 633 b 675 634 667 635 671 635 z m 664 633 l 652 636 l 612 796 l 533 875 l 411 916 l 375 916 l 253 875 l 173 796 l 132 674 l 132 637 l 173 515 l 253 436 l 375 395 l 411 395 l 533 436 l 612 515 b 664 633 613 517 632 621 z m 653 499 l 650 492 l 556 398 l 418 352 l 367 352 l 229 398 l 135 492 l 89 630 l 89 681 l 135 819 l 229 913 l 367 959 l 418 959 l 556 913 l 651 818 l 697 636 l 697 415 l 652 191 l 559 51 l 418 4 l 324 4 l 182 52 l 135 147 l 173 166 l 213 87 l 331 48 l 411 48 l 531 88 l 611 208 l 653 419 z "}," ":{"ha":417,"x_min":0,"x_max":0,"o":""},"!":{"ha":329,"x_min":0,"x_max":0,"o":"m 164 938 l 186 938 l 186 330 l 164 330 l 143 330 l 143 938 z m 180 128 l 223 85 l 238 69 l 223 54 l 180 11 l 164 -5 l 149 11 l 106 54 l 90 69 l 106 85 l 149 128 l 164 113 z m 180 128 l 223 85 l 238 69 l 223 54 l 180 11 l 164 -5 l 149 11 l 106 54 l 90 69 l 106 85 l 149 128 l 164 113 z "},"\"":{"ha":561,"x_min":0,"x_max":0,"o":"m 106 938 l 128 938 l 128 634 l 106 634 l 85 634 l 85 938 z m 454 938 l 475 938 l 475 634 l 454 634 l 432 634 l 432 938 z m 454 938 l 475 938 l 475 634 l 454 634 l 432 634 l 432 938 z "},"#":{"ha":613,"x_min":0,"x_max":0,"o":"m 307 720 l 328 716 l 155 -22 l 134 -17 l 113 -12 l 286 725 z m 481 720 l 502 716 l 328 -22 l 307 -17 l 286 -12 l 460 725 z m 134 460 l 134 482 l 524 482 l 524 460 l 524 438 l 134 438 z m 90 243 l 90 265 l 481 265 l 481 243 l 481 221 l 90 221 z m 481 720 l 502 716 l 328 -22 l 307 -17 l 286 -12 l 460 725 z m 134 460 l 134 482 l 524 482 l 524 460 l 524 438 l 134 438 z m 90 243 l 90 265 l 481 265 l 481 243 l 481 221 l 90 221 z m 134 460 l 134 482 l 524 482 l 524 460 l 524 438 l 134 438 z m 90 243 l 90 265 l 481 265 l 481 243 l 481 221 l 90 221 z m 90 243 l 90 265 l 481 265 l 481 243 l 481 221 l 90 221 z "},"$":{"ha":831,"x_min":0,"x_max":0,"o":"m 329 1111 l 351 1111 l 351 -148 l 329 -148 l 307 -148 l 307 1111 z m 503 1111 l 524 1111 l 524 -148 l 503 -148 l 481 -148 l 481 1111 z m 720 807 l 704 792 l 621 875 l 499 916 l 333 916 l 211 875 l 134 798 l 134 726 l 173 647 l 212 608 l 294 567 l 553 481 l 554 480 l 556 479 l 643 436 l 646 435 l 648 432 l 692 389 l 694 386 l 696 383 l 739 296 l 741 292 l 741 286 l 741 156 l 741 147 l 735 141 l 648 54 l 645 50 l 640 49 l 509 5 l 506 4 l 503 4 l 329 4 l 325 4 l 322 5 l 192 49 l 187 50 l 183 54 l 97 141 l 112 156 l 127 172 l 211 88 l 333 48 l 499 48 l 621 88 l 698 165 l 698 281 l 658 360 l 620 399 l 538 440 l 279 526 l 277 527 l 276 527 l 189 571 l 186 572 l 183 575 l 140 618 l 138 621 l 136 624 l 93 711 l 90 715 l 90 720 l 90 807 l 90 816 l 97 823 l 183 909 l 187 913 l 192 915 l 322 958 l 325 959 l 329 959 l 503 959 l 506 959 l 509 958 l 640 915 l 645 913 l 648 909 l 735 823 z m 503 1111 l 524 1111 l 524 -148 l 503 -148 l 481 -148 l 481 1111 z m 720 807 l 704 792 l 621 875 l 499 916 l 333 916 l 211 875 l 134 798 l 134 726 l 173 647 l 212 608 l 294 567 l 553 481 l 554 480 l 556 479 l 643 436 l 646 435 l 648 432 l 692 389 l 694 386 l 696 383 l 739 296 l 741 292 l 741 286 l 741 156 l 741 147 l 735 141 l 648 54 l 645 50 l 640 49 l 509 5 l 506 4 l 503 4 l 329 4 l 325 4 l 322 5 l 192 49 l 187 50 l 183 54 l 97 141 l 112 156 l 127 172 l 211 88 l 333 48 l 499 48 l 621 88 l 698 165 l 698 281 l 658 360 l 620 399 l 538 440 l 279 526 l 277 527 l 276 527 l 189 571 l 186 572 l 183 575 l 140 618 l 138 621 l 136 624 l 93 711 l 90 715 l 90 720 l 90 807 l 90 816 l 97 823 l 183 909 l 187 913 l 192 915 l 322 958 l 325 959 l 329 959 l 503 959 l 506 959 l 509 958 l 640 915 l 645 913 l 648 909 l 735 823 z m 720 807 l 704 792 l 621 875 l 499 916 l 333 916 l 211 875 l 134 798 l 134 726 l 173 647 l 212 608 l 294 567 l 553 481 l 554 480 l 556 479 l 643 436 l 646 435 l 648 432 l 692 389 l 694 386 l 696 383 l 739 296 l 741 292 l 741 286 l 741 156 l 741 147 l 735 141 l 648 54 l 645 50 l 640 49 l 509 5 l 506 4 l 503 4 l 329 4 l 325 4 l 322 5 l 192 49 l 187 50 l 183 54 l 97 141 l 112 156 l 127 172 l 211 88 l 333 48 l 499 48 l 621 88 l 698 165 l 698 281 l 658 360 l 620 399 l 538 440 l 279 526 l 277 527 l 276 527 l 189 571 l 186 572 l 183 575 l 140 618 l 138 621 l 136 624 l 93 711 l 90 715 l 90 720 l 90 807 l 90 816 l 97 823 l 183 909 l 187 913 l 192 915 l 322 958 l 325 959 l 329 959 l 503 959 l 506 959 l 509 958 l 640 915 l 645 913 l 648 909 l 735 823 z "},"%":{"ha":740,"x_min":0,"x_max":0,"o":"m 630 720 l 646 706 l 125 142 l 109 156 l 93 171 l 614 735 z m 255 736 l 298 692 l 305 686 l 305 677 l 305 590 l 305 581 l 298 575 l 255 532 l 248 525 l 239 525 l 153 525 l 144 525 l 137 532 l 94 575 l 88 581 l 88 590 l 88 677 l 88 686 l 94 692 l 137 736 l 144 742 l 153 742 l 239 742 l 248 742 z m 230 699 l 162 699 l 131 668 l 131 599 l 162 569 l 230 569 l 261 599 l 261 668 z m 500 330 b 478 277 489 319 479 278 l 478 209 l 509 178 l 578 178 l 608 209 l 608 277 l 578 308 l 500 308 z m 500 330 l 500 352 l 587 352 l 596 352 l 602 345 l 645 302 l 652 295 l 652 286 l 652 200 l 652 191 l 645 184 l 602 141 l 596 135 l 587 135 l 500 135 l 491 135 l 484 141 l 441 184 l 435 191 l 435 200 l 435 286 l 435 295 l 441 302 l 484 345 z m 255 736 l 298 692 l 305 686 l 305 677 l 305 590 l 305 581 l 298 575 l 255 532 l 248 525 l 239 525 l 153 525 l 144 525 l 137 532 l 94 575 l 88 581 l 88 590 l 88 677 l 88 686 l 94 692 l 137 736 l 144 742 l 153 742 l 239 742 l 248 742 z m 230 699 l 162 699 l 131 668 l 131 599 l 162 569 l 230 569 l 261 599 l 261 668 z m 500 330 b 478 277 489 319 479 278 l 478 209 l 509 178 l 578 178 l 608 209 l 608 277 l 578 308 l 500 308 z m 500 330 l 500 352 l 587 352 l 596 352 l 602 345 l 645 302 l 652 295 l 652 286 l 652 200 l 652 191 l 645 184 l 602 141 l 596 135 l 587 135 l 500 135 l 491 135 l 484 141 l 441 184 l 435 191 l 435 200 l 435 286 l 435 295 l 441 302 l 484 345 z m 500 330 b 478 277 489 319 479 278 l 478 209 l 509 178 l 578 178 l 608 209 l 608 277 l 578 308 l 500 308 z m 500 330 l 500 352 l 587 352 l 596 352 l 602 345 l 645 302 l 652 295 l 652 286 l 652 200 l 652 191 l 645 184 l 602 141 l 596 135 l 587 135 l 500 135 l 491 135 l 484 141 l 441 184 l 435 191 l 435 200 l 435 286 l 435 295 l 441 302 l 484 345 z "},"&":{"ha":1094,"x_min":0,"x_max":0,"o":"m 402 506 l 215 399 l 176 360 l 136 281 l 136 205 l 176 126 l 214 87 l 293 48 l 457 48 l 536 87 l 656 226 z m 654 144 l 652 142 l 562 52 l 467 4 l 283 4 l 189 52 l 140 100 l 93 195 l 93 292 l 140 386 l 188 434 l 374 540 z m 402 506 l 376 549 l 356 581 l 310 717 l 310 812 l 359 910 l 462 962 l 565 910 l 614 812 l 614 715 l 567 621 l 519 573 z m 687 195 l 656 226 l 703 297 l 789 512 l 835 603 l 887 655 l 948 655 l 1005 599 l 1005 547 l 961 547 l 961 581 l 930 612 l 905 612 l 870 577 l 829 495 l 742 276 z m 654 144 b 683 188 654 144 658 223 l 696 170 l 779 87 l 858 48 l 930 48 l 961 78 l 961 113 l 1005 113 l 1005 60 l 948 4 l 847 4 l 753 52 l 662 142 z m 418 565 l 492 608 l 531 647 l 570 726 l 570 802 l 533 878 l 462 913 l 391 878 l 353 802 l 353 724 l 395 600 z "},"'":{"ha":314,"x_min":0,"x_max":0,"o":"m 162 851 l 146 835 l 103 879 l 88 894 l 103 909 l 146 953 l 162 968 l 177 953 l 220 909 l 227 903 l 227 894 l 227 807 l 227 802 l 224 798 l 181 711 l 179 708 l 177 705 l 134 662 l 118 677 l 103 692 l 144 733 l 183 812 l 183 885 l 168 900 b 177 866 168 900 167 876 z "},"(":{"ha":432,"x_min":0,"x_max":0,"o":"m 323 1024 l 339 1009 l 254 925 l 171 757 l 128 545 l 128 460 l 128 375 l 171 163 l 254 -5 l 339 -89 l 323 -104 l 308 -120 l 221 -33 l 219 -30 l 217 -27 l 130 147 l 129 149 l 129 152 l 85 369 l 85 371 l 85 373 l 85 460 l 85 547 l 85 549 l 85 551 l 129 768 l 129 771 l 130 774 l 217 947 l 219 950 l 221 953 l 308 1040 z "},")":{"ha":433,"x_min":0,"x_max":0,"o":"m 108 1024 l 124 1040 l 211 953 l 213 950 l 215 947 l 301 774 l 303 771 l 303 768 l 347 551 l 347 549 l 347 547 l 347 460 l 347 373 l 347 371 l 347 369 l 303 152 l 303 149 l 301 147 l 215 -27 l 213 -30 l 211 -33 l 124 -120 l 108 -104 l 93 -89 l 177 -5 l 261 163 l 304 375 l 304 460 l 304 545 l 261 757 l 177 925 l 93 1009 z "},"*":{"ha":633,"x_min":0,"x_max":0,"o":"m 316 677 l 337 677 l 337 156 l 316 156 l 294 156 l 294 677 z m 99 547 l 110 565 l 544 305 l 533 286 l 522 268 l 88 528 z m 533 547 l 544 528 l 110 268 l 99 286 l 88 305 l 522 565 z m 99 547 l 110 565 l 544 305 l 533 286 l 522 268 l 88 528 z m 533 547 l 544 528 l 110 268 l 99 286 l 88 305 l 522 565 z m 533 547 l 544 528 l 110 268 l 99 286 l 88 305 l 522 565 z "},"+":{"ha":699,"x_min":0,"x_max":0,"o":"m 349 677 l 371 677 l 371 156 l 349 156 l 328 156 l 328 677 z m 89 417 l 89 438 l 610 438 l 610 417 l 610 395 l 89 395 z m 89 417 l 89 438 l 610 438 l 610 417 l 610 395 l 89 395 z "},",":{"ha":311,"x_min":0,"x_max":0,"o":"m 181 16 l 160 -5 l 86 69 l 160 144 l 225 78 l 225 -22 l 178 -117 l 132 -163 l 101 -132 l 142 -91 l 182 -12 z "},"-":{"ha":693,"x_min":0,"x_max":0,"o":"m 86 417 l 86 438 l 607 438 l 607 417 l 607 395 l 86 395 z "},".":{"ha":321,"x_min":0,"x_max":0,"o":"m 176 128 l 219 85 l 234 69 l 219 54 l 176 11 l 160 -5 l 145 11 l 101 54 l 86 69 l 101 85 l 145 128 l 160 113 z "},"/":{"ha":831,"x_min":0,"x_max":0,"o":"m 112 -104 l 93 -93 l 701 948 l 719 938 l 738 927 l 131 -115 z "},":":{"ha":326,"x_min":0,"x_max":0,"o":"m 148 649 b 163 664 148 649 163 664 b 178 649 163 664 178 649 l 222 606 l 237 590 l 222 575 l 178 532 l 163 516 l 148 532 l 104 575 l 89 590 l 104 606 z m 178 128 l 222 85 l 237 69 l 222 54 l 178 11 l 163 -5 l 148 11 l 104 54 l 89 69 l 104 85 l 148 128 l 163 113 z m 178 128 l 222 85 l 237 69 l 222 54 l 178 11 l 163 -5 l 148 11 l 104 54 l 89 69 l 104 85 l 148 128 l 163 113 z "},";":{"ha":326,"x_min":0,"x_max":0,"o":"m 148 649 b 163 664 148 649 163 664 b 178 649 163 664 178 649 l 222 606 l 237 590 l 222 575 l 178 532 l 163 516 l 148 532 l 104 575 l 89 590 l 104 606 z m 184 16 l 163 -5 l 89 69 l 163 144 l 228 78 l 228 -22 l 181 -117 l 135 -163 l 104 -132 l 145 -91 l 185 -12 z m 184 16 l 163 -5 l 89 69 l 163 144 l 228 78 l 228 -22 l 181 -117 l 135 -163 l 104 -132 l 145 -91 l 185 -12 z "},"<":{"ha":663,"x_min":0,"x_max":0,"o":"m 565 677 l 576 658 l 173 417 l 576 175 l 565 156 l 554 138 l 120 398 l 89 417 l 120 435 l 554 696 z "},"=":{"ha":692,"x_min":0,"x_max":0,"o":"m 85 503 l 85 525 l 606 525 l 606 503 l 606 482 l 85 482 z m 85 330 l 85 352 l 606 352 l 606 330 l 606 308 l 85 308 z m 85 330 l 85 352 l 606 352 l 606 330 l 606 308 l 85 308 z "},">":{"ha":665,"x_min":0,"x_max":0,"o":"m 99 677 l 110 696 l 544 435 l 575 417 l 544 398 l 110 138 l 99 156 l 88 175 l 491 417 l 88 658 z "},"?":{"ha":744,"x_min":0,"x_max":0,"o":"m 112 720 l 90 720 l 90 764 l 90 769 l 93 774 l 136 860 l 138 864 l 140 866 l 183 909 l 186 912 l 189 914 l 276 957 l 280 959 l 286 959 l 459 959 l 464 959 l 469 957 l 556 914 l 559 912 l 561 909 l 605 866 l 607 864 l 609 860 l 652 774 l 655 769 l 655 764 l 655 677 l 655 672 l 652 667 l 609 581 l 607 577 l 605 575 l 561 532 l 559 529 l 556 527 l 394 447 l 394 330 l 372 330 l 351 330 l 351 460 l 351 473 l 363 479 l 533 565 l 572 603 l 611 682 l 611 759 l 572 838 l 533 876 l 454 916 l 291 916 l 212 876 l 173 838 l 134 759 l 134 720 z m 388 128 l 431 85 l 446 69 l 431 54 l 388 11 l 384 7 l 372 -5 l 357 11 l 314 54 l 298 69 l 314 85 l 357 128 l 372 113 z m 388 128 l 431 85 l 446 69 l 431 54 l 388 11 l 384 7 l 372 -5 l 357 11 l 314 54 l 298 69 l 314 85 l 357 128 l 372 113 z "},"@":{"ha":783,"x_min":0,"x_max":0,"o":"m 500 503 l 490 484 l 408 525 l 340 525 l 305 455 l 305 422 l 340 352 l 408 352 l 490 393 l 500 373 l 510 354 l 423 310 l 418 308 l 413 308 l 326 308 l 313 308 l 307 320 l 263 407 l 261 412 l 261 417 l 261 460 l 261 465 l 263 470 l 307 557 l 313 569 l 326 569 l 413 569 l 418 569 l 423 566 l 510 523 z m 500 547 l 522 547 l 522 382 l 552 352 l 617 352 l 652 422 l 652 457 l 611 579 l 532 658 l 409 699 l 373 699 l 251 658 l 172 579 l 131 457 l 131 420 l 172 298 l 251 219 l 373 178 l 409 178 l 536 220 l 543 200 l 550 179 l 420 136 l 417 135 l 413 135 l 370 135 l 366 135 l 363 136 l 233 179 l 228 181 l 224 184 l 137 271 l 134 275 l 132 280 l 89 410 l 88 413 l 88 417 l 88 460 l 88 464 l 89 467 l 132 597 l 134 602 l 137 606 l 224 692 l 228 696 l 233 698 l 363 741 l 366 742 l 370 742 l 413 742 l 417 742 l 420 741 l 550 698 l 555 696 l 559 692 l 645 606 l 649 602 l 651 597 l 694 467 l 695 464 l 695 460 l 695 417 l 695 412 l 693 407 l 649 320 l 643 308 l 630 308 l 543 308 l 534 308 l 528 315 l 484 358 l 478 364 l 478 373 l 478 547 z m 500 547 l 522 547 l 522 382 l 552 352 l 617 352 l 652 422 l 652 457 l 611 579 l 532 658 l 409 699 l 373 699 l 251 658 l 172 579 l 131 457 l 131 420 l 172 298 l 251 219 l 373 178 l 409 178 l 536 220 l 543 200 l 550 179 l 420 136 l 417 135 l 413 135 l 370 135 l 366 135 l 363 136 l 233 179 l 228 181 l 224 184 l 137 271 l 134 275 l 132 280 l 89 410 l 88 413 l 88 417 l 88 460 l 88 464 l 89 467 l 132 597 l 134 602 l 137 606 l 224 692 l 228 696 l 233 698 l 363 741 l 366 742 l 370 742 l 413 742 l 417 742 l 420 741 l 550 698 l 555 696 l 559 692 l 645 606 l 649 602 l 651 597 l 694 467 l 695 464 l 695 460 l 695 417 l 695 412 l 693 407 l 649 320 l 643 308 l 630 308 l 543 308 l 534 308 l 528 315 l 484 358 l 478 364 l 478 373 l 478 547 z "},"A":{"ha":913,"x_min":0,"x_max":0,"o":"m 456 938 l 477 930 l 129 18 l 109 26 l 89 34 l 436 945 z m 456 938 l 477 945 l 824 34 l 804 26 l 783 18 l 436 930 z m 239 330 l 239 352 l 673 352 l 673 330 l 673 308 l 239 308 z m 456 938 l 477 945 l 824 34 l 804 26 l 783 18 l 436 930 z m 239 330 l 239 352 l 673 352 l 673 330 l 673 308 l 239 308 z m 239 330 l 239 352 l 673 352 l 673 330 l 673 308 l 239 308 z "},"B":{"ha":819,"x_min":0,"x_max":0,"o":"m 105 938 l 127 938 l 127 26 l 105 26 l 83 26 l 83 938 z m 105 938 l 105 959 l 496 959 l 499 959 l 503 958 l 633 915 l 638 913 l 641 909 l 685 866 l 687 864 l 689 860 l 732 774 l 734 769 l 734 764 l 734 677 l 734 672 l 732 667 l 689 581 l 687 577 l 685 575 l 641 532 l 638 528 l 633 526 l 503 483 l 496 503 l 489 524 l 614 566 l 651 603 l 691 682 l 691 759 l 651 838 l 614 875 l 492 916 l 105 916 z m 105 503 l 105 525 l 496 525 l 499 525 l 503 524 l 633 481 l 638 479 l 641 475 l 685 432 l 687 430 l 689 426 l 732 340 l 734 335 l 734 330 l 734 200 l 734 195 l 732 190 l 689 103 l 687 100 l 685 98 l 641 54 l 638 50 l 633 49 l 503 5 l 499 4 l 496 4 l 105 4 l 105 26 l 105 48 l 492 48 l 614 88 l 651 126 l 691 205 l 691 325 l 651 404 l 614 441 l 492 482 l 105 482 z m 105 938 l 105 959 l 496 959 l 499 959 l 503 958 l 633 915 l 638 913 l 641 909 l 685 866 l 687 864 l 689 860 l 732 774 l 734 769 l 734 764 l 734 677 l 734 672 l 732 667 l 689 581 l 687 577 l 685 575 l 641 532 l 638 528 l 633 526 l 503 483 l 496 503 l 489 524 l 614 566 l 651 603 l 691 682 l 691 759 l 651 838 l 614 875 l 492 916 l 105 916 z m 105 503 l 105 525 l 496 525 l 499 525 l 503 524 l 633 481 l 638 479 l 641 475 l 685 432 l 687 430 l 689 426 l 732 340 l 734 335 l 734 330 l 734 200 l 734 195 l 732 190 l 689 103 l 687 100 l 685 98 l 641 54 l 638 50 l 633 49 l 503 5 l 499 4 l 496 4 l 105 4 l 105 26 l 105 48 l 492 48 l 614 88 l 651 126 l 691 205 l 691 325 l 651 404 l 614 441 l 492 482 l 105 482 z m 105 503 l 105 525 l 496 525 l 499 525 l 503 524 l 633 481 l 638 479 l 641 475 l 685 432 l 687 430 l 689 426 l 732 340 l 734 335 l 734 330 l 734 200 l 734 195 l 732 190 l 689 103 l 687 100 l 685 98 l 641 54 l 638 50 l 633 49 l 503 5 l 499 4 l 496 4 l 105 4 l 105 26 l 105 48 l 492 48 l 614 88 l 651 126 l 691 205 l 691 325 l 651 404 l 614 441 l 492 482 l 105 482 z "},"C":{"ha":863,"x_min":0,"x_max":0,"o":"m 757 720 l 738 711 l 696 794 l 614 876 l 535 916 l 372 916 l 293 876 l 211 794 l 170 712 l 128 587 l 128 377 l 170 251 l 211 169 l 293 87 l 372 48 l 535 48 l 614 87 l 696 169 l 738 253 l 757 243 l 777 233 l 733 147 l 732 143 l 729 141 l 643 54 l 640 52 l 637 50 l 550 7 l 546 4 l 540 4 l 367 4 l 362 4 l 357 7 l 270 50 l 267 52 l 265 54 l 178 141 l 175 143 l 174 147 l 130 233 l 130 235 l 129 236 l 86 366 l 85 370 l 85 373 l 85 590 l 85 594 l 86 597 l 129 727 l 130 729 l 130 730 l 174 817 l 175 820 l 178 823 l 265 909 l 267 912 l 270 914 l 357 957 l 362 959 l 367 959 l 540 959 l 546 959 l 550 957 l 637 914 l 640 912 l 643 909 l 729 823 l 732 820 l 733 817 l 777 730 z "},"D":{"ha":819,"x_min":0,"x_max":0,"o":"m 105 938 l 127 938 l 127 26 l 105 26 l 83 26 l 83 938 z m 650 711 l 608 794 l 527 875 l 405 916 l 105 916 l 105 938 l 105 959 l 412 959 l 551 913 l 644 820 l 689 729 l 734 594 l 734 370 l 689 235 l 644 143 l 551 50 l 412 4 l 105 4 l 105 48 l 405 48 l 527 88 l 608 169 l 649 251 l 691 377 l 691 587 z m 650 711 l 608 794 l 527 875 l 405 916 l 105 916 l 105 938 l 105 959 l 412 959 l 551 913 l 644 820 l 689 729 l 734 594 l 734 370 l 689 235 l 644 143 l 551 50 l 412 4 l 105 4 l 105 48 l 405 48 l 527 88 l 608 169 l 649 251 l 691 377 l 691 587 z "},"E":{"ha":757,"x_min":0,"x_max":0,"o":"m 105 938 l 127 938 l 127 26 l 105 26 l 83 26 l 83 938 z m 105 938 l 105 959 l 669 959 l 669 938 l 669 916 l 105 916 z m 105 503 l 105 525 l 452 525 l 452 503 l 452 482 l 105 482 z m 105 26 l 105 48 l 669 48 l 669 26 l 669 4 l 105 4 z m 105 938 l 105 959 l 669 959 l 669 938 l 669 916 l 105 916 z m 105 503 l 105 525 l 452 525 l 452 503 l 452 482 l 105 482 z m 105 26 l 105 48 l 669 48 l 669 26 l 669 4 l 105 4 z m 105 503 l 105 525 l 452 525 l 452 503 l 452 482 l 105 482 z m 105 26 l 105 48 l 669 48 l 669 26 l 669 4 l 105 4 z m 105 26 l 105 48 l 669 48 l 669 26 l 669 4 l 105 4 z "},"F":{"ha":758,"x_min":0,"x_max":0,"o":"m 105 938 l 127 938 l 127 26 l 105 26 l 83 26 l 83 938 z m 105 938 l 105 959 l 669 959 l 669 938 l 669 916 l 105 916 z m 105 503 l 105 525 l 452 525 l 452 503 l 452 482 l 105 482 z m 105 938 l 105 959 l 669 959 l 669 938 l 669 916 l 105 916 z m 105 503 l 105 525 l 452 525 l 452 503 l 452 482 l 105 482 z m 105 503 l 105 525 l 452 525 l 452 503 l 452 482 l 105 482 z "},"G":{"ha":865,"x_min":0,"x_max":0,"o":"m 757 720 l 738 711 l 696 794 l 614 876 l 535 916 l 372 916 l 293 876 l 211 794 l 170 712 l 128 587 l 128 377 l 170 251 l 211 169 l 293 87 l 372 48 l 535 48 l 614 87 l 696 169 l 736 248 l 736 373 l 757 373 l 779 373 l 779 243 l 779 238 l 777 233 l 733 147 l 732 143 l 729 141 l 643 54 l 640 52 l 637 50 l 550 7 l 546 4 l 540 4 l 367 4 l 362 4 l 357 7 l 270 50 l 267 52 l 265 54 l 178 141 l 175 143 l 174 147 l 130 233 l 130 235 l 129 236 l 86 366 l 85 370 l 85 373 l 85 590 l 85 594 l 86 597 l 129 727 l 130 729 l 130 730 l 174 817 l 175 820 l 178 823 l 265 909 l 267 912 l 270 914 l 357 957 l 362 959 l 367 959 l 540 959 l 546 959 l 550 957 l 637 914 l 640 912 l 643 909 l 729 823 l 732 820 l 733 817 l 777 730 z m 540 373 l 540 395 l 757 395 l 757 373 l 757 352 l 540 352 z m 540 373 l 540 395 l 757 395 l 757 373 l 757 352 l 540 352 z "},"H":{"ha":818,"x_min":0,"x_max":0,"o":"m 105 938 l 127 938 l 127 26 l 105 26 l 83 26 l 83 938 z m 713 938 l 734 938 l 734 26 l 713 26 l 691 26 l 691 938 z m 105 503 l 105 525 l 713 525 l 713 503 l 713 482 l 105 482 z m 713 938 l 734 938 l 734 26 l 713 26 l 691 26 l 691 938 z m 105 503 l 105 525 l 713 525 l 713 503 l 713 482 l 105 482 z m 105 503 l 105 525 l 713 525 l 713 503 l 713 482 l 105 482 z "},"I":{"ha":210,"x_min":0,"x_max":0,"o":"m 105 938 l 127 938 l 127 26 l 105 26 l 83 26 l 83 938 z "},"J":{"ha":649,"x_min":0,"x_max":0,"o":"m 543 938 l 565 938 l 565 243 l 565 240 l 564 236 l 520 106 l 519 101 l 515 98 l 472 54 l 469 52 l 466 50 l 379 7 l 375 4 l 370 4 l 283 4 l 278 4 l 273 7 l 186 50 l 183 52 l 181 54 l 137 98 l 134 101 l 132 106 l 89 236 l 88 240 l 88 243 l 88 330 l 109 330 l 131 330 l 131 247 l 172 125 l 209 87 l 288 48 l 364 48 l 444 87 l 481 125 l 522 247 l 522 938 z "},"K":{"ha":818,"x_min":0,"x_max":0,"o":"m 105 938 l 127 938 l 127 26 l 105 26 l 83 26 l 83 938 z m 713 938 l 728 922 l 120 315 l 105 330 l 90 345 l 697 953 z m 322 547 l 339 560 l 730 39 l 713 26 l 695 13 l 305 534 z m 713 938 l 728 922 l 120 315 l 105 330 l 90 345 l 697 953 z m 322 547 l 339 560 l 730 39 l 713 26 l 695 13 l 305 534 z m 322 547 l 339 560 l 730 39 l 713 26 l 695 13 l 305 534 z "},"L":{"ha":715,"x_min":0,"x_max":0,"o":"m 105 938 l 127 938 l 127 26 l 105 26 l 83 26 l 83 938 z m 105 26 l 105 48 l 626 48 l 626 26 l 626 4 l 105 4 z m 105 26 l 105 48 l 626 48 l 626 26 l 626 4 l 105 4 z "},"M":{"ha":904,"x_min":0,"x_max":0,"o":"m 105 938 l 127 938 l 127 26 l 105 26 l 83 26 l 83 938 z m 105 938 l 125 945 l 473 34 l 452 26 l 432 18 l 85 930 z m 799 938 l 820 930 l 473 18 l 452 26 l 432 34 l 779 945 z m 799 938 l 821 938 l 821 26 l 799 26 l 778 26 l 778 938 z m 105 938 l 125 945 l 473 34 l 452 26 l 432 18 l 85 930 z m 799 938 l 820 930 l 473 18 l 452 26 l 432 34 l 779 945 z m 799 938 l 821 938 l 821 26 l 799 26 l 778 26 l 778 938 z m 799 938 l 820 930 l 473 18 l 452 26 l 432 34 l 779 945 z m 799 938 l 821 938 l 821 26 l 799 26 l 778 26 l 778 938 z m 799 938 l 821 938 l 821 26 l 799 26 l 778 26 l 778 938 z "},"N":{"ha":818,"x_min":0,"x_max":0,"o":"m 105 938 l 127 938 l 127 26 l 105 26 l 83 26 l 83 938 z m 105 938 l 123 950 l 731 38 l 713 26 l 695 14 l 87 925 z m 713 938 l 734 938 l 734 26 l 713 26 l 691 26 l 691 938 z m 105 938 l 123 950 l 731 38 l 713 26 l 695 14 l 87 925 z m 713 938 l 734 938 l 734 26 l 713 26 l 691 26 l 691 938 z m 713 938 l 734 938 l 734 26 l 713 26 l 691 26 l 691 938 z "},"O":{"ha":907,"x_min":0,"x_max":0,"o":"m 367 938 b 293 876 340 924 315 887 l 211 794 l 170 712 l 128 587 l 128 377 l 170 251 l 211 169 l 293 87 l 372 48 l 535 48 l 614 87 l 696 169 l 737 251 l 779 377 l 779 587 l 737 712 l 696 794 l 614 876 l 535 916 l 367 916 z m 170 712 l 169 711 l 170 714 z m 170 251 l 170 250 l 169 253 z m 737 251 l 738 253 l 737 250 z m 737 712 l 737 714 l 738 711 z m 367 938 l 367 959 l 540 959 l 546 959 l 550 957 l 637 914 l 640 912 l 643 909 l 729 823 l 732 820 l 733 817 l 777 730 l 778 729 l 778 727 l 821 597 l 823 594 l 823 590 l 823 373 l 823 370 l 821 366 l 778 236 l 778 235 l 777 233 l 733 147 l 732 143 l 729 141 l 643 54 l 640 52 l 637 50 l 550 7 l 546 4 l 540 4 l 367 4 l 362 4 l 357 7 l 270 50 l 267 52 l 265 54 l 178 141 l 175 143 l 174 147 l 130 233 l 130 235 l 129 236 l 86 366 l 85 370 l 85 373 l 85 590 l 85 594 l 86 597 l 129 727 l 130 729 l 130 730 l 174 817 l 175 820 l 178 823 l 265 909 l 267 912 l 270 914 l 357 957 z "},"P":{"ha":821,"x_min":0,"x_max":0,"o":"m 105 938 l 127 938 l 127 26 l 105 26 l 83 26 l 83 938 z m 105 938 l 105 959 l 496 959 l 499 959 l 503 958 l 633 915 l 638 913 l 641 909 l 685 866 l 687 864 l 689 860 l 732 774 l 734 769 l 734 764 l 734 634 l 734 629 l 732 624 l 689 537 l 687 534 l 685 532 l 641 488 l 638 485 l 633 483 l 503 439 l 499 438 l 496 438 l 105 438 l 105 460 l 105 482 l 492 482 l 614 522 l 651 560 l 691 639 l 691 759 l 651 838 l 614 875 l 492 916 l 105 916 z m 105 938 l 105 959 l 496 959 l 499 959 l 503 958 l 633 915 l 638 913 l 641 909 l 685 866 l 687 864 l 689 860 l 732 774 l 734 769 l 734 764 l 734 634 l 734 629 l 732 624 l 689 537 l 687 534 l 685 532 l 641 488 l 638 485 l 633 483 l 503 439 l 499 438 l 496 438 l 105 438 l 105 460 l 105 482 l 492 482 l 614 522 l 651 560 l 691 639 l 691 759 l 651 838 l 614 875 l 492 916 l 105 916 z "},"Q":{"ha":907,"x_min":0,"x_max":0,"o":"m 372 916 l 293 876 l 211 794 l 170 712 l 128 587 l 128 377 l 170 251 l 211 169 l 293 87 l 372 48 l 535 48 l 614 87 l 696 169 l 737 251 l 779 377 l 779 587 l 737 712 l 696 794 l 614 876 l 535 916 z m 170 712 l 169 711 l 170 714 z m 170 251 l 170 250 l 169 253 z m 737 251 l 738 253 l 737 250 z m 737 712 l 737 714 l 738 711 z m 357 957 l 362 959 l 367 959 l 540 959 l 546 959 l 550 957 l 637 914 l 640 912 l 643 909 l 729 823 l 732 820 l 733 817 l 777 730 l 778 729 l 778 727 l 821 597 l 823 594 l 823 590 l 823 373 l 823 370 l 821 366 l 778 236 l 778 235 l 777 233 l 733 147 l 732 143 l 729 141 l 643 54 l 640 52 l 637 50 l 550 7 l 546 4 l 540 4 l 367 4 l 362 4 l 357 7 l 270 50 l 267 52 l 265 54 l 178 141 l 175 143 l 174 147 l 130 233 l 130 235 l 129 236 l 86 366 l 85 370 l 85 373 l 85 590 l 85 594 l 86 597 l 129 727 l 130 729 l 130 730 l 174 817 l 175 820 l 178 823 l 265 909 l 267 912 l 270 914 z m 497 200 l 512 215 l 773 -45 l 757 -61 l 742 -76 l 482 184 z m 497 200 l 512 215 l 773 -45 l 757 -61 l 742 -76 l 482 184 z "},"R":{"ha":821,"x_min":0,"x_max":0,"o":"m 105 938 l 127 938 l 127 26 l 105 26 l 83 26 l 83 938 z m 105 938 l 105 959 l 496 959 l 499 959 l 503 958 l 633 915 l 638 913 l 641 909 l 685 866 l 687 864 l 689 860 l 732 774 l 734 769 l 734 764 l 734 677 l 734 672 l 732 667 l 689 581 l 687 577 l 685 575 l 641 532 l 638 528 l 633 526 l 503 483 l 499 482 l 496 482 l 105 482 l 105 503 l 105 525 l 492 525 l 614 566 l 651 603 l 691 682 l 691 759 l 651 838 l 614 875 l 492 916 l 105 916 z m 409 503 l 427 515 l 731 38 l 713 26 l 694 14 l 391 492 z m 105 938 l 105 959 l 496 959 l 499 959 l 503 958 l 633 915 l 638 913 l 641 909 l 685 866 l 687 864 l 689 860 l 732 774 l 734 769 l 734 764 l 734 677 l 734 672 l 732 667 l 689 581 l 687 577 l 685 575 l 641 532 l 638 528 l 633 526 l 503 483 l 499 482 l 496 482 l 105 482 l 105 503 l 105 525 l 492 525 l 614 566 l 651 603 l 691 682 l 691 759 l 651 838 l 614 875 l 492 916 l 105 916 z m 409 503 l 427 515 l 731 38 l 713 26 l 694 14 l 391 492 z m 409 503 l 427 515 l 731 38 l 713 26 l 694 14 l 391 492 z "},"S":{"ha":825,"x_min":0,"x_max":0,"o":"m 718 807 l 703 792 l 620 875 l 498 916 l 331 916 l 209 875 l 132 798 l 132 726 l 172 647 l 210 608 l 293 567 l 551 481 l 553 480 l 554 479 l 641 436 l 644 435 l 647 432 l 690 389 l 693 386 l 694 383 l 738 296 l 740 292 l 740 286 l 740 156 l 740 147 l 734 141 l 647 54 l 643 50 l 638 49 l 508 5 l 505 4 l 501 4 l 328 4 l 324 4 l 321 5 l 191 49 l 186 50 l 182 54 l 95 141 l 111 156 l 126 172 l 209 88 l 331 48 l 498 48 l 620 88 l 697 165 l 697 281 l 657 360 l 619 399 l 536 440 l 277 526 l 276 527 l 274 527 l 188 571 l 185 572 l 182 575 l 139 618 l 136 621 l 135 624 l 91 711 l 89 715 l 89 720 l 89 807 l 89 816 l 95 823 l 182 909 l 186 913 l 191 915 l 321 958 l 324 959 l 328 959 l 501 959 l 505 959 l 508 958 l 638 915 l 643 913 l 647 909 l 734 823 z "},"T":{"ha":788,"x_min":0,"x_max":0,"o":"m 394 938 l 416 938 l 416 26 l 394 26 l 372 26 l 372 938 z m 90 938 l 90 959 l 698 959 l 698 938 l 698 916 l 90 916 z m 90 938 l 90 959 l 698 959 l 698 938 l 698 916 l 90 916 z "},"U":{"ha":818,"x_min":0,"x_max":0,"o":"m 105 938 l 127 938 l 127 290 l 167 168 l 247 88 l 369 48 l 449 48 l 571 88 l 650 168 l 691 290 l 691 938 l 713 938 l 734 938 l 734 286 l 734 283 l 733 280 l 690 149 l 688 145 l 685 141 l 598 54 l 594 50 l 589 49 l 459 5 l 456 4 l 452 4 l 365 4 l 362 4 l 359 5 l 228 49 l 224 50 l 220 54 l 133 141 l 129 145 l 128 149 l 84 280 l 83 283 l 83 286 l 83 938 z "},"V":{"ha":914,"x_min":0,"x_max":0,"o":"m 111 938 l 131 945 l 478 34 l 458 26 l 438 18 l 90 930 z m 805 938 l 825 930 l 478 18 l 458 26 l 438 34 l 785 945 z m 805 938 l 825 930 l 478 18 l 458 26 l 438 34 l 785 945 z "},"W":{"ha":1089,"x_min":0,"x_max":0,"o":"m 111 938 l 133 943 l 350 31 l 328 26 l 307 21 l 90 932 z m 545 938 l 567 932 l 350 21 l 328 26 l 307 31 l 524 943 z m 545 938 l 567 943 l 784 31 l 762 26 l 741 21 l 524 932 z m 979 938 l 1001 932 l 784 21 l 762 26 l 741 31 l 958 943 z m 545 938 l 567 932 l 350 21 l 328 26 l 307 31 l 524 943 z m 545 938 l 567 943 l 784 31 l 762 26 l 741 21 l 524 932 z m 979 938 l 1001 932 l 784 21 l 762 26 l 741 31 l 958 943 z m 545 938 l 567 943 l 784 31 l 762 26 l 741 21 l 524 932 z m 979 938 l 1001 932 l 784 21 l 762 26 l 741 31 l 958 943 z m 979 938 l 1001 932 l 784 21 l 762 26 l 741 31 l 958 943 z "},"X":{"ha":818,"x_min":0,"x_max":0,"o":"m 104 938 l 122 950 l 730 38 l 712 26 l 694 14 l 86 925 z m 712 938 l 730 925 l 122 14 l 104 26 l 86 38 l 694 950 z m 712 938 l 730 925 l 122 14 l 104 26 l 86 38 l 694 950 z "},"Y":{"ha":907,"x_min":0,"x_max":0,"o":"m 107 938 l 124 951 l 471 517 l 476 511 l 476 503 l 476 26 l 454 26 l 433 26 l 433 496 l 90 924 z m 802 938 l 819 924 l 471 490 l 454 503 l 438 517 l 785 951 z m 802 938 l 819 924 l 471 490 l 454 503 l 438 517 l 785 951 z "},"Z":{"ha":822,"x_min":0,"x_max":0,"o":"m 715 938 l 733 925 l 125 14 l 107 26 l 89 38 l 697 950 z m 107 938 l 107 959 l 715 959 l 715 938 l 715 916 l 107 916 z m 107 26 l 107 48 l 715 48 l 715 26 l 715 4 l 107 4 z m 107 938 l 107 959 l 715 959 l 715 938 l 715 916 l 107 916 z m 107 26 l 107 48 l 715 48 l 715 26 l 715 4 l 107 4 z m 107 26 l 107 48 l 715 48 l 715 26 l 715 4 l 107 4 z "},"[":{"ha":501,"x_min":0,"x_max":0,"o":"m 105 1024 l 127 1024 l 127 -104 l 105 -104 l 83 -104 l 83 1024 z m 105 1024 l 105 1046 l 409 1046 l 409 1024 l 409 1003 l 105 1003 z m 105 -104 l 105 -82 l 409 -82 l 409 -104 l 409 -126 l 105 -126 z m 105 1024 l 105 1046 l 409 1046 l 409 1024 l 409 1003 l 105 1003 z m 105 -104 l 105 -82 l 409 -82 l 409 -104 l 409 -126 l 105 -126 z m 105 -104 l 105 -82 l 409 -82 l 409 -104 l 409 -126 l 105 -126 z "},"\\":{"ha":829,"x_min":0,"x_max":0,"o":"m 110 938 l 129 948 l 737 -93 l 718 -104 l 699 -115 l 92 927 z "},"]":{"ha":501,"x_min":0,"x_max":0,"o":"m 397 1024 l 419 1024 l 419 -104 l 397 -104 l 375 -104 l 375 1024 z m 93 1024 l 93 1046 l 397 1046 l 397 1024 l 397 1003 l 93 1003 z m 93 -104 l 93 -82 l 397 -82 l 397 -104 l 397 -126 l 93 -126 z m 93 1024 l 93 1046 l 397 1046 l 397 1024 l 397 1003 l 93 1003 z m 93 -104 l 93 -82 l 397 -82 l 397 -104 l 397 -126 l 93 -126 z m 93 -104 l 93 -82 l 397 -82 l 397 -104 l 397 -126 l 93 -126 z "},"^":{"ha":385,"x_min":0,"x_max":0,"o":"m 106 677 l 88 689 l 174 819 l 192 846 l 210 819 l 297 689 l 279 677 l 261 665 l 192 768 l 124 665 z "},"_":{"ha":861,"x_min":0,"x_max":0,"o":"m 83 -61 l 83 -39 l 778 -39 l 778 -61 l 778 -82 l 83 -82 z "},"`":{"ha":314,"x_min":0,"x_max":0,"o":"m 195 938 l 210 922 l 169 881 l 130 802 l 130 729 b 158 727 141 718 158 727 l 136 749 l 151 764 l 167 779 l 210 736 l 225 720 l 210 705 l 167 662 l 151 646 l 136 662 l 92 705 l 86 711 l 86 720 l 86 807 l 86 812 l 88 817 l 132 904 l 133 907 l 136 909 l 179 953 z "},"a":{"ha":735,"x_min":0,"x_max":0,"o":"m 630 634 l 652 634 l 652 26 l 630 26 l 608 26 l 608 634 z m 630 503 l 615 488 l 530 572 l 451 612 l 331 612 l 252 572 l 172 492 l 131 370 l 131 290 l 172 168 l 252 87 l 331 48 l 451 48 l 530 87 l 615 172 l 630 156 l 645 141 l 559 54 l 556 52 l 553 50 l 466 7 l 462 4 l 456 4 l 326 4 l 321 4 l 317 7 l 230 50 l 227 52 l 224 54 l 137 141 l 134 145 l 132 149 l 89 280 l 88 283 l 88 286 l 88 373 l 88 377 l 89 380 l 132 510 l 134 515 l 137 519 l 224 606 l 227 608 l 230 610 l 317 653 l 321 655 l 326 655 l 456 655 l 462 655 l 466 653 l 553 610 l 556 608 l 559 606 l 645 519 z m 630 503 l 615 488 l 530 572 l 451 612 l 331 612 l 252 572 l 172 492 l 131 370 l 131 290 l 172 168 l 252 87 l 331 48 l 451 48 l 530 87 l 615 172 l 630 156 l 645 141 l 559 54 l 556 52 l 553 50 l 466 7 l 462 4 l 456 4 l 326 4 l 321 4 l 317 7 l 230 50 l 227 52 l 224 54 l 137 141 l 134 145 l 132 149 l 89 280 l 88 283 l 88 286 l 88 373 l 88 377 l 89 380 l 132 510 l 134 515 l 137 519 l 224 606 l 227 608 l 230 610 l 317 653 l 321 655 l 326 655 l 456 655 l 462 655 l 466 653 l 553 610 l 556 608 l 559 606 l 645 519 z "},"b":{"ha":733,"x_min":0,"x_max":0,"o":"m 105 938 l 127 938 l 127 26 l 105 26 l 83 26 l 83 938 z m 105 503 l 90 519 l 176 606 l 179 608 l 182 610 l 269 653 l 274 655 l 279 655 l 409 655 l 414 655 l 419 653 l 505 610 l 509 608 l 511 606 l 598 519 l 601 515 l 603 510 l 646 380 l 648 377 l 648 373 l 648 286 l 648 283 l 646 280 l 603 149 l 601 145 l 598 141 l 511 54 l 509 52 l 505 50 l 419 7 l 414 4 l 409 4 l 279 4 l 274 4 l 269 7 l 182 50 l 179 52 l 176 54 l 90 141 l 105 156 l 120 172 l 205 87 l 284 48 l 404 48 l 483 87 l 563 168 l 604 290 l 604 370 l 563 492 l 483 572 l 404 612 l 284 612 l 205 572 l 120 488 z m 105 503 l 90 519 l 176 606 l 179 608 l 182 610 l 269 653 l 274 655 l 279 655 l 409 655 l 414 655 l 419 653 l 505 610 l 509 608 l 511 606 l 598 519 l 601 515 l 603 510 l 646 380 l 648 377 l 648 373 l 648 286 l 648 283 l 646 280 l 603 149 l 601 145 l 598 141 l 511 54 l 509 52 l 505 50 l 419 7 l 414 4 l 409 4 l 279 4 l 274 4 l 269 7 l 182 50 l 179 52 l 176 54 l 90 141 l 105 156 l 120 172 l 205 87 l 284 48 l 404 48 l 483 87 l 563 168 l 604 290 l 604 370 l 563 492 l 483 572 l 404 612 l 284 612 l 205 572 l 120 488 z "},"c":{"ha":733,"x_min":0,"x_max":0,"o":"m 630 503 l 615 488 l 530 572 l 451 612 l 331 612 l 252 572 l 172 492 l 131 370 l 131 290 l 172 168 l 252 87 l 331 48 l 451 48 l 530 87 l 615 172 l 630 156 l 645 141 l 559 54 l 556 52 l 553 50 l 466 7 l 462 4 l 456 4 l 326 4 l 321 4 l 317 7 l 230 50 l 227 52 l 224 54 l 137 141 l 134 145 l 132 149 l 89 280 l 88 283 l 88 286 l 88 373 l 88 377 l 89 380 l 132 510 l 134 515 l 137 519 l 224 606 l 227 608 l 230 610 l 317 653 l 321 655 l 326 655 l 456 655 l 462 655 l 466 653 l 553 610 l 556 608 l 559 606 l 645 519 z "},"d":{"ha":735,"x_min":0,"x_max":0,"o":"m 630 938 l 652 938 l 652 26 l 630 26 l 608 26 l 608 938 z m 630 503 l 615 488 l 530 572 l 451 612 l 331 612 l 252 572 l 172 492 l 131 370 l 131 290 l 172 168 l 252 87 l 331 48 l 451 48 l 530 87 l 615 172 l 630 156 l 645 141 l 559 54 l 556 52 l 553 50 l 466 7 l 462 4 l 456 4 l 326 4 l 321 4 l 317 7 l 230 50 l 227 52 l 224 54 l 137 141 l 134 145 l 132 149 l 89 280 l 88 283 l 88 286 l 88 373 l 88 377 l 89 380 l 132 510 l 134 515 l 137 519 l 224 606 l 227 608 l 230 610 l 317 653 l 321 655 l 326 655 l 456 655 l 462 655 l 466 653 l 553 610 l 556 608 l 559 606 l 645 519 z m 630 503 l 615 488 l 530 572 l 451 612 l 331 612 l 252 572 l 172 492 l 131 370 l 131 290 l 172 168 l 252 87 l 331 48 l 451 48 l 530 87 l 615 172 l 630 156 l 645 141 l 559 54 l 556 52 l 553 50 l 466 7 l 462 4 l 456 4 l 326 4 l 321 4 l 317 7 l 230 50 l 227 52 l 224 54 l 137 141 l 134 145 l 132 149 l 89 280 l 88 283 l 88 286 l 88 373 l 88 377 l 89 380 l 132 510 l 134 515 l 137 519 l 224 606 l 227 608 l 230 610 l 317 653 l 321 655 l 326 655 l 456 655 l 462 655 l 466 653 l 553 610 l 556 608 l 559 606 l 645 519 z "},"e":{"ha":738,"x_min":0,"x_max":0,"o":"m 130 361 b 131 352 131 358 131 355 l 131 290 l 172 168 l 252 87 l 331 48 l 451 48 l 530 87 l 615 172 l 645 141 l 556 52 l 462 4 l 321 4 l 227 52 l 134 145 l 88 283 l 88 377 l 134 515 l 227 608 l 321 655 l 462 655 l 556 608 l 604 560 l 652 465 l 652 352 l 630 352 b 130 361 614 352 226 338 z m 139 395 l 608 395 l 608 455 l 569 534 l 530 572 l 451 612 l 331 612 l 252 572 l 172 492 z "},"f":{"ha":525,"x_min":0,"x_max":0,"o":"m 436 938 l 436 916 l 354 916 l 280 879 l 241 760 l 241 26 l 219 26 l 197 26 l 197 764 l 197 767 l 199 771 l 242 901 l 245 909 l 253 914 l 340 957 l 344 959 l 349 959 l 436 959 z m 89 634 l 89 655 l 393 655 l 393 634 l 393 612 l 89 612 z m 89 634 l 89 655 l 393 655 l 393 634 l 393 612 l 89 612 z "},"g":{"ha":735,"x_min":0,"x_max":0,"o":"m 630 634 l 652 634 l 652 -61 l 652 -64 l 651 -68 l 607 -198 l 606 -203 l 602 -206 l 559 -250 l 556 -252 l 553 -254 l 466 -297 l 462 -299 l 456 -299 l 326 -299 l 321 -299 l 317 -297 l 230 -254 l 239 -234 l 249 -215 l 331 -256 l 451 -256 l 530 -217 l 568 -179 l 608 -57 l 608 634 z m 630 503 l 615 488 l 530 572 l 451 612 l 331 612 l 252 572 l 172 492 l 131 370 l 131 290 l 172 168 l 252 87 l 331 48 l 451 48 l 530 87 l 615 172 l 630 156 l 645 141 l 559 54 l 556 52 l 553 50 l 466 7 l 462 4 l 456 4 l 326 4 l 321 4 l 317 7 l 230 50 l 227 52 l 224 54 l 137 141 l 134 145 l 132 149 l 89 280 l 88 283 l 88 286 l 88 373 l 88 377 l 89 380 l 132 510 l 134 515 l 137 519 l 224 606 l 227 608 l 230 610 l 317 653 l 321 655 l 326 655 l 456 655 l 462 655 l 466 653 l 553 610 l 556 608 l 559 606 l 645 519 z m 630 503 l 615 488 l 530 572 l 451 612 l 331 612 l 252 572 l 172 492 l 131 370 l 131 290 l 172 168 l 252 87 l 331 48 l 451 48 l 530 87 l 615 172 l 630 156 l 645 141 l 559 54 l 556 52 l 553 50 l 466 7 l 462 4 l 456 4 l 326 4 l 321 4 l 317 7 l 230 50 l 227 52 l 224 54 l 137 141 l 134 145 l 132 149 l 89 280 l 88 283 l 88 286 l 88 373 l 88 377 l 89 380 l 132 510 l 134 515 l 137 519 l 224 606 l 227 608 l 230 610 l 317 653 l 321 655 l 326 655 l 456 655 l 462 655 l 466 653 l 553 610 l 556 608 l 559 606 l 645 519 z "},"h":{"ha":689,"x_min":0,"x_max":0,"o":"m 105 938 l 127 938 l 127 26 l 105 26 l 83 26 l 83 938 z m 105 460 l 90 475 l 220 606 l 222 608 l 226 610 l 312 653 l 317 655 l 322 655 l 452 655 l 457 655 l 462 653 l 549 610 l 557 606 l 560 597 l 603 467 l 604 464 l 604 460 l 604 26 l 582 26 l 561 26 l 561 457 l 521 575 l 447 612 l 327 612 l 248 572 l 120 445 z m 105 460 l 90 475 l 220 606 l 222 608 l 226 610 l 312 653 l 317 655 l 322 655 l 452 655 l 457 655 l 462 653 l 549 610 l 557 606 l 560 597 l 603 467 l 604 464 l 604 460 l 604 26 l 582 26 l 561 26 l 561 457 l 521 575 l 447 612 l 327 612 l 248 572 l 120 445 z "},"i":{"ha":324,"x_min":0,"x_max":0,"o":"m 103 922 b 88 938 103 922 88 938 b 103 953 88 938 103 953 l 146 996 l 162 1012 l 177 996 l 220 953 l 236 938 l 220 922 l 177 879 l 162 863 l 146 879 z m 162 634 l 183 634 l 183 26 l 162 26 l 140 26 l 140 634 z m 162 634 l 183 634 l 183 26 l 162 26 l 140 26 l 140 634 z "},"j":{"ha":472,"x_min":0,"x_max":0,"o":"m 251 922 b 236 938 251 922 236 938 b 251 953 236 938 251 953 l 295 996 l 310 1012 l 325 996 l 369 953 l 384 938 l 369 922 l 325 879 l 310 863 l 295 879 z m 310 634 l 332 634 l 332 -104 l 332 -108 l 331 -111 l 287 -241 l 284 -250 l 276 -254 l 190 -297 l 185 -299 l 180 -299 l 93 -299 l 93 -278 l 93 -256 l 175 -256 l 249 -219 l 288 -101 l 288 634 z m 310 634 l 332 634 l 332 -104 l 332 -108 l 331 -111 l 287 -241 l 284 -250 l 276 -254 l 190 -297 l 185 -299 l 180 -299 l 93 -299 l 93 -278 l 93 -256 l 175 -256 l 249 -219 l 288 -101 l 288 634 z "},"k":{"ha":688,"x_min":0,"x_max":0,"o":"m 105 938 l 127 938 l 127 26 l 105 26 l 83 26 l 83 938 z m 539 634 l 554 618 l 120 184 l 105 200 l 90 215 l 524 649 z m 279 373 l 295 388 l 599 40 l 582 26 l 566 12 l 262 359 z m 539 634 l 554 618 l 120 184 l 105 200 l 90 215 l 524 649 z m 279 373 l 295 388 l 599 40 l 582 26 l 566 12 l 262 359 z m 279 373 l 295 388 l 599 40 l 582 26 l 566 12 l 262 359 z "},"l":{"ha":210,"x_min":0,"x_max":0,"o":"m 105 938 l 127 938 l 127 26 l 105 26 l 83 26 l 83 938 z "},"m":{"ha":1167,"x_min":0,"x_max":0,"o":"m 105 634 l 127 634 l 127 26 l 105 26 l 83 26 l 83 634 z m 105 460 l 90 475 l 220 606 l 222 608 l 226 610 l 312 653 l 317 655 l 322 655 l 452 655 l 457 655 l 462 653 l 549 610 l 557 606 l 560 597 l 603 467 l 604 464 l 604 460 l 604 26 l 582 26 l 561 26 l 561 457 l 521 575 l 447 612 l 327 612 l 248 572 l 120 445 z m 582 460 l 567 475 l 697 606 l 700 608 l 703 610 l 790 653 l 794 655 l 799 655 l 930 655 l 935 655 l 939 653 l 1026 610 l 1034 606 l 1037 597 l 1080 467 l 1082 464 l 1082 460 l 1082 26 l 1060 26 l 1038 26 l 1038 457 l 999 575 l 925 612 l 805 612 l 726 572 l 598 445 z m 105 460 l 90 475 l 220 606 l 222 608 l 226 610 l 312 653 l 317 655 l 322 655 l 452 655 l 457 655 l 462 653 l 549 610 l 557 606 l 560 597 l 603 467 l 604 464 l 604 460 l 604 26 l 582 26 l 561 26 l 561 457 l 521 575 l 447 612 l 327 612 l 248 572 l 120 445 z m 582 460 l 567 475 l 697 606 l 700 608 l 703 610 l 790 653 l 794 655 l 799 655 l 930 655 l 935 655 l 939 653 l 1026 610 l 1034 606 l 1037 597 l 1080 467 l 1082 464 l 1082 460 l 1082 26 l 1060 26 l 1038 26 l 1038 457 l 999 575 l 925 612 l 805 612 l 726 572 l 598 445 z m 582 460 l 567 475 l 697 606 l 700 608 l 703 610 l 790 653 l 794 655 l 799 655 l 930 655 l 935 655 l 939 653 l 1026 610 l 1034 606 l 1037 597 l 1080 467 l 1082 464 l 1082 460 l 1082 26 l 1060 26 l 1038 26 l 1038 457 l 999 575 l 925 612 l 805 612 l 726 572 l 598 445 z "},"n":{"ha":689,"x_min":0,"x_max":0,"o":"m 105 634 l 127 634 l 127 26 l 105 26 l 83 26 l 83 634 z m 105 460 l 90 475 l 220 606 l 222 608 l 226 610 l 312 653 l 317 655 l 322 655 l 452 655 l 457 655 l 462 653 l 549 610 l 557 606 l 560 597 l 603 467 l 604 464 l 604 460 l 604 26 l 582 26 l 561 26 l 561 457 l 521 575 l 447 612 l 327 612 l 248 572 l 120 445 z m 105 460 l 90 475 l 220 606 l 222 608 l 226 610 l 312 653 l 317 655 l 322 655 l 452 655 l 457 655 l 462 653 l 549 610 l 557 606 l 560 597 l 603 467 l 604 464 l 604 460 l 604 26 l 582 26 l 561 26 l 561 457 l 521 575 l 447 612 l 327 612 l 248 572 l 120 445 z "},"o":{"ha":782,"x_min":0,"x_max":0,"o":"m 326 634 l 336 614 l 331 612 l 326 612 z m 331 612 l 252 572 l 172 492 l 131 370 l 131 290 l 172 168 l 252 87 l 331 48 l 451 48 l 530 87 l 611 168 l 652 290 l 652 370 l 611 492 l 530 572 l 451 612 z m 326 634 l 326 655 l 456 655 l 462 655 l 466 653 l 553 610 l 556 608 l 559 606 l 645 519 l 649 515 l 651 510 l 694 380 l 695 377 l 695 373 l 695 286 l 695 283 l 694 280 l 651 149 l 649 145 l 645 141 l 559 54 l 556 52 l 553 50 l 466 7 l 462 4 l 456 4 l 326 4 l 321 4 l 317 7 l 230 50 l 227 52 l 224 54 l 137 141 l 134 145 l 132 149 l 89 280 l 88 283 l 88 286 l 88 373 l 88 377 l 89 380 l 132 510 l 134 515 l 137 519 l 224 606 l 227 608 l 230 610 l 317 653 z "},"p":{"ha":733,"x_min":0,"x_max":0,"o":"m 105 634 l 127 634 l 127 -278 l 105 -278 l 83 -278 l 83 634 z m 105 503 l 90 519 l 176 606 l 179 608 l 182 610 l 269 653 l 274 655 l 279 655 l 409 655 l 414 655 l 419 653 l 505 610 l 509 608 l 511 606 l 598 519 l 601 515 l 603 510 l 646 380 l 648 377 l 648 373 l 648 286 l 648 283 l 646 280 l 603 149 l 601 145 l 598 141 l 511 54 l 509 52 l 505 50 l 419 7 l 414 4 l 409 4 l 279 4 l 274 4 l 269 7 l 182 50 l 179 52 l 176 54 l 90 141 l 105 156 l 120 172 l 205 87 l 284 48 l 404 48 l 483 87 l 563 168 l 604 290 l 604 370 l 563 492 l 483 572 l 404 612 l 284 612 l 205 572 l 120 488 z m 105 503 l 90 519 l 176 606 l 179 608 l 182 610 l 269 653 l 274 655 l 279 655 l 409 655 l 414 655 l 419 653 l 505 610 l 509 608 l 511 606 l 598 519 l 601 515 l 603 510 l 646 380 l 648 377 l 648 373 l 648 286 l 648 283 l 646 280 l 603 149 l 601 145 l 598 141 l 511 54 l 509 52 l 505 50 l 419 7 l 414 4 l 409 4 l 279 4 l 274 4 l 269 7 l 182 50 l 179 52 l 176 54 l 90 141 l 105 156 l 120 172 l 205 87 l 284 48 l 404 48 l 483 87 l 563 168 l 604 290 l 604 370 l 563 492 l 483 572 l 404 612 l 284 612 l 205 572 l 120 488 z "},"q":{"ha":735,"x_min":0,"x_max":0,"o":"m 630 634 l 652 634 l 652 -278 l 630 -278 l 608 -278 l 608 634 z m 630 503 l 615 488 l 530 572 l 451 612 l 331 612 l 252 572 l 172 492 l 131 370 l 131 290 l 172 168 l 252 87 l 331 48 l 451 48 l 530 87 l 615 172 l 630 156 l 645 141 l 559 54 l 556 52 l 553 50 l 466 7 l 462 4 l 456 4 l 326 4 l 321 4 l 317 7 l 230 50 l 227 52 l 224 54 l 137 141 l 134 145 l 132 149 l 89 280 l 88 283 l 88 286 l 88 373 l 88 377 l 89 380 l 132 510 l 134 515 l 137 519 l 224 606 l 227 608 l 230 610 l 317 653 l 321 655 l 326 655 l 456 655 l 462 655 l 466 653 l 553 610 l 556 608 l 559 606 l 645 519 z m 630 503 l 615 488 l 530 572 l 451 612 l 331 612 l 252 572 l 172 492 l 131 370 l 131 290 l 172 168 l 252 87 l 331 48 l 451 48 l 530 87 l 615 172 l 630 156 l 645 141 l 559 54 l 556 52 l 553 50 l 466 7 l 462 4 l 456 4 l 326 4 l 321 4 l 317 7 l 230 50 l 227 52 l 224 54 l 137 141 l 134 145 l 132 149 l 89 280 l 88 283 l 88 286 l 88 373 l 88 377 l 89 380 l 132 510 l 134 515 l 137 519 l 224 606 l 227 608 l 230 610 l 317 653 l 321 655 l 326 655 l 456 655 l 462 655 l 466 653 l 553 610 l 556 608 l 559 606 l 645 519 z "},"r":{"ha":539,"x_min":0,"x_max":0,"o":"m 105 634 l 127 634 l 127 26 l 105 26 l 83 26 l 83 634 z m 105 373 l 84 380 l 128 510 l 129 515 l 133 519 l 220 606 l 222 608 l 226 610 l 312 653 l 317 655 l 322 655 l 452 655 l 452 634 l 452 612 l 327 612 l 248 572 l 167 492 l 126 366 z m 105 373 l 84 380 l 128 510 l 129 515 l 133 519 l 220 606 l 222 608 l 226 610 l 312 653 l 317 655 l 322 655 l 452 655 l 452 634 l 452 612 l 327 612 l 248 572 l 167 492 l 126 366 z "},"s":{"ha":697,"x_min":0,"x_max":0,"o":"m 591 503 l 571 494 l 532 573 l 413 612 l 290 612 l 172 573 l 137 503 l 173 433 l 250 394 l 465 351 l 467 351 l 470 349 l 557 306 l 563 303 l 567 296 l 610 209 l 612 205 l 612 200 l 612 156 l 612 151 l 610 147 l 567 60 l 563 52 l 554 49 l 424 5 l 420 4 l 417 4 l 287 4 l 283 4 l 280 5 l 150 49 l 141 52 l 137 60 l 94 147 l 113 156 l 133 166 l 172 87 l 290 48 l 413 48 l 532 87 l 569 161 l 569 195 l 531 270 l 453 309 l 239 352 l 236 353 l 234 354 l 147 397 l 140 400 l 137 407 l 94 494 l 89 503 l 94 513 l 137 600 l 141 608 l 150 611 l 280 654 l 283 655 l 287 655 l 417 655 l 420 655 l 424 654 l 554 611 l 563 608 l 567 600 l 610 513 z "},"t":{"ha":525,"x_min":0,"x_max":0,"o":"m 219 938 l 241 938 l 241 203 l 280 85 l 354 48 l 436 48 l 436 26 l 436 4 l 349 4 l 344 4 l 340 7 l 253 50 l 245 54 l 242 63 l 199 193 l 197 196 l 197 200 l 197 938 z m 89 634 l 89 655 l 393 655 l 393 634 l 393 612 l 89 612 z m 89 634 l 89 655 l 393 655 l 393 634 l 393 612 l 89 612 z "},"u":{"ha":689,"x_min":0,"x_max":0,"o":"m 106 634 l 128 634 l 128 203 l 168 85 l 242 48 l 362 48 l 441 87 l 569 215 l 584 200 l 599 184 l 469 54 l 467 52 l 463 50 l 377 7 l 372 4 l 367 4 l 237 4 l 232 4 l 227 7 l 140 50 l 132 54 l 129 63 l 86 193 l 85 196 l 85 200 l 85 634 z m 584 634 l 606 634 l 606 26 l 584 26 l 562 26 l 562 634 z m 584 634 l 606 634 l 606 26 l 584 26 l 562 26 l 562 634 z "},"v":{"ha":736,"x_min":0,"x_max":0,"o":"m 109 634 l 129 642 l 389 35 l 369 26 l 349 17 l 89 625 z m 630 634 l 650 625 l 389 17 l 369 26 l 349 35 l 610 642 z m 630 634 l 650 625 l 389 17 l 369 26 l 349 35 l 610 642 z "},"w":{"ha":911,"x_min":0,"x_max":0,"o":"m 110 634 l 131 640 l 304 32 l 283 26 l 263 20 l 89 628 z m 457 634 l 478 628 l 304 20 l 283 26 l 263 32 l 436 640 z m 457 634 l 478 640 l 651 32 l 631 26 l 610 20 l 436 628 z m 804 634 l 825 628 l 651 20 l 631 26 l 610 32 l 783 640 z m 457 634 l 478 628 l 304 20 l 283 26 l 263 32 l 436 640 z m 457 634 l 478 640 l 651 32 l 631 26 l 610 20 l 436 628 z m 804 634 l 825 628 l 651 20 l 631 26 l 610 32 l 783 640 z m 457 634 l 478 640 l 651 32 l 631 26 l 610 20 l 436 628 z m 804 634 l 825 628 l 651 20 l 631 26 l 610 32 l 783 640 z m 804 634 l 825 628 l 651 20 l 631 26 l 610 32 l 783 640 z "},"x":{"ha":683,"x_min":0,"x_max":0,"o":"m 103 634 l 120 647 l 598 39 l 581 26 l 564 13 l 86 620 z m 581 634 l 598 620 l 120 13 l 103 26 l 86 39 l 564 647 z m 581 634 l 598 620 l 120 13 l 103 26 l 86 39 l 564 647 z "},"y":{"ha":764,"x_min":0,"x_max":0,"o":"m 136 634 l 156 642 l 417 35 l 397 26 l 377 17 l 117 625 z m 657 634 l 677 625 l 417 17 l 417 17 l 416 16 l 329 -157 l 328 -160 l 325 -163 l 239 -250 l 236 -252 l 233 -254 l 146 -297 l 142 -299 l 136 -299 l 93 -299 l 93 -278 l 93 -256 l 131 -256 l 210 -217 l 292 -135 l 377 35 l 637 642 z m 657 634 l 677 625 l 417 17 l 417 17 l 416 16 l 329 -157 l 328 -160 l 325 -163 l 239 -250 l 236 -252 l 233 -254 l 146 -297 l 142 -299 l 136 -299 l 93 -299 l 93 -278 l 93 -256 l 131 -256 l 210 -217 l 292 -135 l 377 35 l 637 642 z "},"z":{"ha":685,"x_min":0,"x_max":0,"o":"m 582 634 l 599 620 l 122 13 l 105 26 l 88 39 l 565 647 z m 105 634 l 105 655 l 582 655 l 582 634 l 582 612 l 105 612 z m 105 26 l 105 48 l 582 48 l 582 26 l 582 4 l 105 4 z m 105 634 l 105 655 l 582 655 l 582 634 l 582 612 l 105 612 z m 105 26 l 105 48 l 582 48 l 582 26 l 582 4 l 105 4 z m 105 26 l 105 48 l 582 48 l 582 26 l 582 4 l 105 4 z "},"{":{"ha":413,"x_min":0,"x_max":0,"o":"m 260 1024 l 275 1009 l 195 929 l 195 856 l 234 777 l 275 736 l 277 733 l 279 730 l 322 643 l 325 639 l 325 634 l 325 590 l 325 585 l 322 581 l 279 494 l 276 489 l 272 485 l 169 417 l 272 348 l 276 345 l 279 340 l 322 253 l 325 248 l 325 243 l 325 200 l 325 195 l 322 190 l 279 103 l 277 100 l 275 98 l 234 57 l 195 -22 l 195 -95 l 275 -176 l 260 -191 l 244 -206 l 157 -120 l 151 -113 l 151 -104 l 151 -17 l 151 -12 l 153 -8 l 197 79 l 198 82 l 201 85 l 242 126 l 281 205 l 281 238 l 243 315 l 117 399 l 90 417 l 117 435 l 243 518 l 281 595 l 281 629 l 242 708 l 201 749 l 198 751 l 197 754 l 153 841 l 151 846 l 151 851 l 151 938 l 151 946 l 157 953 l 244 1040 z "},"|":{"ha":210,"x_min":0,"x_max":0,"o":"m 105 1111 l 127 1111 l 127 -278 l 105 -278 l 83 -278 l 83 1111 z "},"}":{"ha":413,"x_min":0,"x_max":0,"o":"m 153 1024 l 168 1040 l 255 953 l 261 946 l 261 938 l 261 851 l 261 846 l 259 841 l 215 754 l 214 751 l 211 749 l 170 708 l 131 629 l 131 595 l 169 518 l 295 435 b 322 417 295 435 322 417 b 295 399 322 417 295 399 l 169 315 l 131 238 l 131 165 l 168 128 l 211 85 l 214 82 l 215 79 l 259 -8 l 261 -12 l 261 -17 l 261 -104 l 261 -113 l 255 -120 l 168 -206 l 153 -191 l 137 -176 l 218 -95 l 218 -22 l 178 57 l 137 98 l 94 141 l 88 147 l 88 156 l 88 243 l 88 248 l 90 253 l 133 340 l 136 345 l 141 348 l 244 417 l 141 485 l 136 489 l 133 494 l 90 581 l 88 585 l 88 590 l 88 634 l 88 639 l 90 643 l 133 730 l 135 733 l 137 736 l 178 777 l 218 856 l 218 929 l 137 1009 z "},"~":{"ha":736,"x_min":0,"x_max":0,"o":"m 108 373 l 86 373 l 86 460 l 86 469 l 92 475 l 136 519 l 142 525 l 151 525 l 238 525 l 243 525 l 248 523 l 504 395 l 576 395 l 607 426 l 607 503 l 629 503 l 650 503 l 650 417 l 650 408 l 644 401 l 601 358 l 594 352 l 585 352 l 498 352 l 493 352 l 489 354 l 233 482 l 160 482 l 130 451 l 130 373 z "},"":{"ha":567,"x_min":0,"x_max":0,"o":"m 239 938 b 169 878 215 925 183 885 l 131 802 l 131 726 l 169 650 l 245 612 l 321 612 l 397 650 l 435 726 l 435 802 l 397 878 l 321 916 l 239 916 z m 239 938 l 239 959 l 326 959 l 331 959 l 336 957 l 423 914 l 429 910 l 432 904 l 476 817 l 478 812 l 478 807 l 478 720 l 478 715 l 476 711 l 432 624 l 429 618 l 423 614 l 336 571 l 331 569 l 326 569 l 239 569 l 234 569 l 230 571 l 143 614 l 136 618 l 133 624 l 90 711 l 88 715 l 88 720 l 88 807 l 88 812 l 90 817 l 133 904 l 136 910 l 143 914 l 230 957 z "},"":{"ha":607,"x_min":0,"x_max":0,"o":"m 303 634 l 325 634 l 325 156 l 303 156 l 281 156 l 281 634 z m 86 417 l 86 438 l 520 438 l 520 417 l 520 395 l 86 395 z m 86 156 l 86 178 l 520 178 l 520 156 l 520 135 l 86 135 z m 86 417 l 86 438 l 520 438 l 520 417 l 520 395 l 86 395 z m 86 156 l 86 178 l 520 178 l 520 156 l 520 135 l 86 135 z m 86 156 l 86 178 l 520 178 l 520 156 l 520 135 l 86 135 z "},"":{"ha":636,"x_min":0,"x_max":0,"o":"m 101 634 l 117 649 l 551 215 l 535 200 l 520 184 l 86 618 z m 535 634 l 551 618 l 117 184 l 101 200 l 86 215 l 520 649 z m 535 634 l 551 618 l 117 184 l 101 200 l 86 215 l 520 649 z "},"":{"ha":696,"x_min":0,"x_max":0,"o":"m 334 692 b 349 708 334 692 349 708 b 365 692 349 708 365 692 l 408 649 l 423 634 l 408 618 l 365 575 l 361 571 l 349 560 l 334 575 l 291 618 l 275 634 l 291 649 z m 89 417 l 89 438 l 610 438 l 610 417 l 610 395 l 89 395 z m 365 258 l 408 215 l 423 200 l 408 184 l 365 141 l 361 137 l 349 126 l 334 141 l 291 184 l 275 200 l 291 215 l 334 258 l 349 243 z m 89 417 l 89 438 l 610 438 l 610 417 l 610 395 l 89 395 z m 365 258 l 408 215 l 423 200 l 408 184 l 365 141 l 361 137 l 349 126 l 334 141 l 291 184 l 275 200 l 291 215 l 334 258 l 349 243 z m 365 258 l 408 215 l 423 200 l 408 184 l 365 141 l 361 137 l 349 126 l 334 141 l 291 184 l 275 200 l 291 215 l 334 258 l 349 243 z "},"":{"ha":914,"x_min":0,"x_max":0,"o":"m 458 938 l 478 930 l 131 18 l 111 26 l 90 34 l 438 945 z m 458 938 l 478 945 l 825 34 l 805 26 l 785 18 l 438 930 z m 241 330 l 241 352 l 675 352 l 675 330 l 675 308 l 241 308 z m 458 938 l 478 945 l 825 34 l 805 26 l 785 18 l 438 930 z m 241 330 l 241 352 l 675 352 l 675 330 l 675 308 l 241 308 z m 241 330 l 241 352 l 675 352 l 675 330 l 675 308 l 241 308 z "},"":{"ha":822,"x_min":0,"x_max":0,"o":"m 105 938 l 127 938 l 127 26 l 105 26 l 83 26 l 83 938 z m 105 938 l 105 959 l 496 959 l 499 959 l 503 958 l 633 915 l 638 913 l 641 909 l 685 866 l 687 864 l 689 860 l 732 774 l 734 769 l 734 764 l 734 677 l 734 672 l 732 667 l 689 581 l 687 577 l 685 575 l 641 532 l 638 528 l 633 526 l 503 483 l 496 503 l 489 524 l 614 566 l 651 603 l 691 682 l 691 759 l 651 838 l 614 875 l 492 916 l 105 916 z m 105 503 l 105 525 l 496 525 l 499 525 l 503 524 l 633 481 l 638 479 l 641 475 l 685 432 l 687 430 l 689 426 l 732 340 l 734 335 l 734 330 l 734 200 l 734 195 l 732 190 l 689 103 l 687 100 l 685 98 l 641 54 l 638 50 l 633 49 l 503 5 l 499 4 l 496 4 l 105 4 l 105 26 l 105 48 l 492 48 l 614 88 l 651 126 l 691 205 l 691 325 l 651 404 l 614 441 l 492 482 l 105 482 z m 105 938 l 105 959 l 496 959 l 499 959 l 503 958 l 633 915 l 638 913 l 641 909 l 685 866 l 687 864 l 689 860 l 732 774 l 734 769 l 734 764 l 734 677 l 734 672 l 732 667 l 689 581 l 687 577 l 685 575 l 641 532 l 638 528 l 633 526 l 503 483 l 496 503 l 489 524 l 614 566 l 651 603 l 691 682 l 691 759 l 651 838 l 614 875 l 492 916 l 105 916 z m 105 503 l 105 525 l 496 525 l 499 525 l 503 524 l 633 481 l 638 479 l 641 475 l 685 432 l 687 430 l 689 426 l 732 340 l 734 335 l 734 330 l 734 200 l 734 195 l 732 190 l 689 103 l 687 100 l 685 98 l 641 54 l 638 50 l 633 49 l 503 5 l 499 4 l 496 4 l 105 4 l 105 26 l 105 48 l 492 48 l 614 88 l 651 126 l 691 205 l 691 325 l 651 404 l 614 441 l 492 482 l 105 482 z m 105 503 l 105 525 l 496 525 l 499 525 l 503 524 l 633 481 l 638 479 l 641 475 l 685 432 l 687 430 l 689 426 l 732 340 l 734 335 l 734 330 l 734 200 l 734 195 l 732 190 l 689 103 l 687 100 l 685 98 l 641 54 l 638 50 l 633 49 l 503 5 l 499 4 l 496 4 l 105 4 l 105 26 l 105 48 l 492 48 l 614 88 l 651 126 l 691 205 l 691 325 l 651 404 l 614 441 l 492 482 l 105 482 z "},"":{"ha":717,"x_min":0,"x_max":0,"o":"m 105 938 l 127 938 l 127 26 l 105 26 l 83 26 l 83 938 z m 105 938 l 105 959 l 626 959 l 626 938 l 626 916 l 105 916 z m 105 938 l 105 959 l 626 959 l 626 938 l 626 916 l 105 916 z "},"":{"ha":914,"x_min":0,"x_max":0,"o":"m 458 938 l 478 930 l 131 18 l 111 26 l 90 34 l 438 945 z m 458 938 l 478 945 l 825 34 l 805 26 l 785 18 l 438 930 z m 111 26 l 111 48 l 805 48 l 805 26 l 805 4 l 111 4 z m 458 938 l 478 945 l 825 34 l 805 26 l 785 18 l 438 930 z m 111 26 l 111 48 l 805 48 l 805 26 l 805 4 l 111 4 z m 111 26 l 111 48 l 805 48 l 805 26 l 805 4 l 111 4 z "},"":{"ha":758,"x_min":0,"x_max":0,"o":"m 105 938 l 127 938 l 127 26 l 105 26 l 83 26 l 83 938 z m 105 938 l 105 959 l 669 959 l 669 938 l 669 916 l 105 916 z m 105 503 l 105 525 l 452 525 l 452 503 l 452 482 l 105 482 z m 105 26 l 105 48 l 669 48 l 669 26 l 669 4 l 105 4 z m 105 938 l 105 959 l 669 959 l 669 938 l 669 916 l 105 916 z m 105 503 l 105 525 l 452 525 l 452 503 l 452 482 l 105 482 z m 105 26 l 105 48 l 669 48 l 669 26 l 669 4 l 105 4 z m 105 503 l 105 525 l 452 525 l 452 503 l 452 482 l 105 482 z m 105 26 l 105 48 l 669 48 l 669 26 l 669 4 l 105 4 z m 105 26 l 105 48 l 669 48 l 669 26 l 669 4 l 105 4 z "},"":{"ha":825,"x_min":0,"x_max":0,"o":"m 716 938 l 734 925 l 126 14 l 108 26 l 90 38 l 698 950 z m 108 938 l 108 959 l 716 959 l 716 938 l 716 916 l 108 916 z m 108 26 l 108 48 l 716 48 l 716 26 l 716 4 l 108 4 z m 108 938 l 108 959 l 716 959 l 716 938 l 716 916 l 108 916 z m 108 26 l 108 48 l 716 48 l 716 26 l 716 4 l 108 4 z m 108 26 l 108 48 l 716 48 l 716 26 l 716 4 l 108 4 z "},"":{"ha":818,"x_min":0,"x_max":0,"o":"m 105 938 l 127 938 l 127 26 l 105 26 l 83 26 l 83 938 z m 713 938 l 734 938 l 734 26 l 713 26 l 691 26 l 691 938 z m 105 503 l 105 525 l 713 525 l 713 503 l 713 482 l 105 482 z m 713 938 l 734 938 l 734 26 l 713 26 l 691 26 l 691 938 z m 105 503 l 105 525 l 713 525 l 713 503 l 713 482 l 105 482 z m 105 503 l 105 525 l 713 525 l 713 503 l 713 482 l 105 482 z "},"":{"ha":913,"x_min":0,"x_max":0,"o":"m 375 916 l 296 876 l 214 794 l 173 712 l 131 587 l 131 377 l 173 251 l 214 169 l 296 87 l 375 48 l 538 48 l 617 87 l 699 169 l 740 251 l 782 377 l 782 587 l 740 712 l 699 794 l 617 876 l 538 916 z m 173 712 l 172 711 l 173 714 z m 173 251 l 173 250 l 172 253 z m 740 251 l 741 253 l 740 250 z m 740 712 l 740 714 l 741 711 z m 360 957 l 364 959 l 370 959 l 543 959 l 548 959 l 553 957 l 640 914 l 643 912 l 645 909 l 732 823 l 735 820 l 736 817 l 780 730 l 780 729 l 781 727 l 824 597 l 825 594 l 825 590 l 825 373 l 825 370 l 824 366 l 781 236 l 780 235 l 780 233 l 736 147 l 735 143 l 732 141 l 645 54 l 643 52 l 640 50 l 553 7 l 548 4 l 543 4 l 370 4 l 364 4 l 360 7 l 273 50 l 270 52 l 267 54 l 181 141 l 178 143 l 177 147 l 133 233 l 133 235 l 132 236 l 89 366 l 88 370 l 88 373 l 88 590 l 88 594 l 89 597 l 132 727 l 133 729 l 133 730 l 177 817 l 178 820 l 181 823 l 267 909 l 270 912 l 273 914 z m 326 503 l 326 525 l 587 525 l 587 503 l 587 482 l 326 482 z m 326 503 l 326 525 l 587 525 l 587 503 l 587 482 l 326 482 z "},"":{"ha":210,"x_min":0,"x_max":0,"o":"m 105 938 l 127 938 l 127 26 l 105 26 l 83 26 l 83 938 z "},"":{"ha":819,"x_min":0,"x_max":0,"o":"m 105 938 l 127 938 l 127 26 l 105 26 l 83 26 l 83 938 z m 713 938 l 728 922 l 120 315 l 105 330 l 90 345 l 697 953 z m 322 547 l 339 560 l 730 39 l 713 26 l 695 13 l 305 534 z m 713 938 l 728 922 l 120 315 l 105 330 l 90 345 l 697 953 z m 322 547 l 339 560 l 730 39 l 713 26 l 695 13 l 305 534 z m 322 547 l 339 560 l 730 39 l 713 26 l 695 13 l 305 534 z "},"":{"ha":914,"x_min":0,"x_max":0,"o":"m 458 938 l 478 930 l 131 18 l 111 26 l 90 34 l 438 945 z m 458 938 l 478 945 l 825 34 l 805 26 l 785 18 l 438 930 z m 458 938 l 478 945 l 825 34 l 805 26 l 785 18 l 438 930 z "},"":{"ha":904,"x_min":0,"x_max":0,"o":"m 105 938 l 127 938 l 127 26 l 105 26 l 83 26 l 83 938 z m 105 938 l 125 945 l 473 34 l 452 26 l 432 18 l 85 930 z m 799 938 l 820 930 l 473 18 l 452 26 l 432 34 l 779 945 z m 799 938 l 821 938 l 821 26 l 799 26 l 778 26 l 778 938 z m 105 938 l 125 945 l 473 34 l 452 26 l 432 18 l 85 930 z m 799 938 l 820 930 l 473 18 l 452 26 l 432 34 l 779 945 z m 799 938 l 821 938 l 821 26 l 799 26 l 778 26 l 778 938 z m 799 938 l 820 930 l 473 18 l 452 26 l 432 34 l 779 945 z m 799 938 l 821 938 l 821 26 l 799 26 l 778 26 l 778 938 z m 799 938 l 821 938 l 821 26 l 799 26 l 778 26 l 778 938 z "},"":{"ha":818,"x_min":0,"x_max":0,"o":"m 105 938 l 127 938 l 127 26 l 105 26 l 83 26 l 83 938 z m 105 938 l 123 950 l 731 38 l 713 26 l 695 14 l 87 925 z m 713 938 l 734 938 l 734 26 l 713 26 l 691 26 l 691 938 z m 105 938 l 123 950 l 731 38 l 713 26 l 695 14 l 87 925 z m 713 938 l 734 938 l 734 26 l 713 26 l 691 26 l 691 938 z m 713 938 l 734 938 l 734 26 l 713 26 l 691 26 l 691 938 z "},"":{"ha":786,"x_min":0,"x_max":0,"o":"m 90 938 l 90 959 l 698 959 l 698 938 l 698 916 l 90 916 z m 264 503 l 264 525 l 524 525 l 524 503 l 524 482 l 264 482 z m 90 26 l 90 48 l 698 48 l 698 26 l 698 4 l 90 4 z m 264 503 l 264 525 l 524 525 l 524 503 l 524 482 l 264 482 z m 90 26 l 90 48 l 698 48 l 698 26 l 698 4 l 90 4 z m 90 26 l 90 48 l 698 48 l 698 26 l 698 4 l 90 4 z "},"":{"ha":913,"x_min":0,"x_max":0,"o":"m 370 938 b 296 876 343 924 317 887 l 214 794 l 173 712 l 131 587 l 131 377 l 173 251 l 214 169 l 296 87 l 375 48 l 538 48 l 617 87 l 699 169 l 740 251 l 782 377 l 782 587 l 740 712 l 699 794 l 617 876 l 538 916 l 370 916 z m 173 712 l 172 711 l 173 714 z m 173 251 l 173 250 l 172 253 z m 740 251 l 741 253 l 740 250 z m 740 712 l 740 714 l 741 711 z m 370 938 l 370 959 l 543 959 l 548 959 l 553 957 l 640 914 l 643 912 l 645 909 l 732 823 l 735 820 l 736 817 l 780 730 l 780 729 l 781 727 l 824 597 l 825 594 l 825 590 l 825 373 l 825 370 l 824 366 l 781 236 l 780 235 l 780 233 l 736 147 l 735 143 l 732 141 l 645 54 l 643 52 l 640 50 l 553 7 l 548 4 l 543 4 l 370 4 l 364 4 l 360 7 l 273 50 l 270 52 l 267 54 l 181 141 l 178 143 l 177 147 l 133 233 l 133 235 l 132 236 l 89 366 l 88 370 l 88 373 l 88 590 l 88 594 l 89 597 l 132 727 l 133 729 l 133 730 l 177 817 l 178 820 l 181 823 l 267 909 l 270 912 l 273 914 l 360 957 z "},"":{"ha":818,"x_min":0,"x_max":0,"o":"m 105 938 l 127 938 l 127 26 l 105 26 l 83 26 l 83 938 z m 713 938 l 734 938 l 734 26 l 713 26 l 691 26 l 691 938 z m 105 938 l 105 959 l 713 959 l 713 938 l 713 916 l 105 916 z m 713 938 l 734 938 l 734 26 l 713 26 l 691 26 l 691 938 z m 105 938 l 105 959 l 713 959 l 713 938 l 713 916 l 105 916 z m 105 938 l 105 959 l 713 959 l 713 938 l 713 916 l 105 916 z "},"":{"ha":825,"x_min":0,"x_max":0,"o":"m 105 938 l 127 938 l 127 26 l 105 26 l 83 26 l 83 938 z m 105 938 l 105 959 l 496 959 l 499 959 l 503 958 l 633 915 l 638 913 l 641 909 l 685 866 l 687 864 l 689 860 l 732 774 l 734 769 l 734 764 l 734 634 l 734 629 l 732 624 l 689 537 l 687 534 l 685 532 l 641 488 l 638 485 l 633 483 l 503 439 l 499 438 l 496 438 l 105 438 l 105 460 l 105 482 l 492 482 l 614 522 l 651 560 l 691 639 l 691 759 l 651 838 l 614 875 l 492 916 l 105 916 z m 105 938 l 105 959 l 496 959 l 499 959 l 503 958 l 633 915 l 638 913 l 641 909 l 685 866 l 687 864 l 689 860 l 732 774 l 734 769 l 734 764 l 734 634 l 734 629 l 732 624 l 689 537 l 687 534 l 685 532 l 641 488 l 638 485 l 633 483 l 503 439 l 499 438 l 496 438 l 105 438 l 105 460 l 105 482 l 492 482 l 614 522 l 651 560 l 691 639 l 691 759 l 651 838 l 614 875 l 492 916 l 105 916 z "},"":{"ha":806,"x_min":0,"x_max":0,"o":"m 109 938 l 126 950 l 430 516 l 438 504 l 431 492 l 127 14 l 109 26 l 90 38 l 386 503 l 91 925 z m 109 938 l 109 959 l 716 959 l 716 938 l 716 916 l 109 916 z m 109 26 l 109 48 l 716 48 l 716 26 l 716 4 l 109 4 z m 109 938 l 109 959 l 716 959 l 716 938 l 716 916 l 109 916 z m 109 26 l 109 48 l 716 48 l 716 26 l 716 4 l 109 4 z m 109 26 l 109 48 l 716 48 l 716 26 l 716 4 l 109 4 z "},"":{"ha":789,"x_min":0,"x_max":0,"o":"m 394 938 l 416 938 l 416 26 l 394 26 l 372 26 l 372 938 z m 90 938 l 90 959 l 698 959 l 698 938 l 698 916 l 90 916 z m 90 938 l 90 959 l 698 959 l 698 938 l 698 916 l 90 916 z "},"":{"ha":832,"x_min":0,"x_max":0,"o":"m 112 720 l 90 720 l 90 807 l 90 812 l 93 817 l 136 904 l 138 907 l 140 909 l 183 953 l 190 959 l 199 959 l 286 959 l 295 959 l 301 953 l 344 909 l 347 907 l 348 904 l 392 817 l 393 815 l 393 813 l 437 639 l 438 636 l 438 634 l 438 26 l 416 26 l 394 26 l 394 631 l 352 800 l 311 881 l 277 916 l 208 916 l 173 881 l 134 802 l 134 720 z m 720 720 l 698 720 l 698 802 l 658 881 l 624 916 l 555 916 l 520 881 l 480 800 l 437 628 l 416 634 l 395 639 l 438 813 l 439 815 l 440 817 l 483 904 l 485 907 l 487 909 l 531 953 l 537 959 l 546 959 l 633 959 l 642 959 l 648 953 l 692 909 l 694 907 l 696 904 l 739 817 l 741 812 l 741 807 l 741 720 z m 720 720 l 698 720 l 698 802 l 658 881 l 624 916 l 555 916 l 520 881 l 480 800 l 437 628 l 416 634 l 395 639 l 438 813 l 439 815 l 440 817 l 483 904 l 485 907 l 487 909 l 531 953 l 537 959 l 546 959 l 633 959 l 642 959 l 648 953 l 692 909 l 694 907 l 696 904 l 739 817 l 741 812 l 741 807 l 741 720 z "},"":{"ha":828,"x_min":0,"x_max":0,"o":"m 414 938 l 436 938 l 436 26 l 414 26 l 393 26 l 393 938 z m 328 720 l 334 700 l 331 699 l 328 699 z m 331 699 l 209 658 l 172 621 l 132 542 l 132 422 l 172 343 l 209 305 l 331 265 l 498 265 l 620 305 l 657 343 l 697 422 l 697 542 l 657 621 l 620 658 l 498 699 z m 328 720 l 328 742 l 501 742 l 505 742 l 508 741 l 638 698 l 643 696 l 647 692 l 690 649 l 693 647 l 694 643 l 738 557 l 740 552 l 740 547 l 740 417 l 740 412 l 738 407 l 694 320 l 693 317 l 690 315 l 647 271 l 643 267 l 638 266 l 508 222 l 505 221 l 501 221 l 328 221 l 324 221 l 321 222 l 191 266 l 186 267 l 182 271 l 139 315 l 136 317 l 135 320 l 91 407 l 89 412 l 89 417 l 89 547 l 89 552 l 91 557 l 135 643 l 136 647 l 139 649 l 182 692 l 186 696 l 191 698 l 321 741 z m 328 720 l 334 700 l 331 699 l 328 699 z m 331 699 l 209 658 l 172 621 l 132 542 l 132 422 l 172 343 l 209 305 l 331 265 l 498 265 l 620 305 l 657 343 l 697 422 l 697 542 l 657 621 l 620 658 l 498 699 z m 328 720 l 328 742 l 501 742 l 505 742 l 508 741 l 638 698 l 643 696 l 647 692 l 690 649 l 693 647 l 694 643 l 738 557 l 740 552 l 740 547 l 740 417 l 740 412 l 738 407 l 694 320 l 693 317 l 690 315 l 647 271 l 643 267 l 638 266 l 508 222 l 505 221 l 501 221 l 328 221 l 324 221 l 321 222 l 191 266 l 186 267 l 182 271 l 139 315 l 136 317 l 135 320 l 91 407 l 89 412 l 89 417 l 89 547 l 89 552 l 91 557 l 135 643 l 136 647 l 139 649 l 182 692 l 186 696 l 191 698 l 321 741 z "},"":{"ha":824,"x_min":0,"x_max":0,"o":"m 108 938 l 126 950 l 734 38 l 716 26 l 698 14 l 90 925 z m 108 26 l 90 38 l 698 950 l 716 938 l 734 925 l 126 14 z m 108 26 l 90 38 l 698 950 l 716 938 l 734 925 l 126 14 z "},"":{"ha":961,"x_min":0,"x_max":0,"o":"m 481 938 l 503 938 l 503 26 l 481 26 l 459 26 l 459 938 z m 90 677 l 90 699 l 134 699 l 143 699 l 149 692 l 192 649 l 197 645 l 198 639 l 241 468 l 282 386 l 319 349 l 441 308 l 521 308 l 643 349 l 680 386 l 721 468 l 764 639 l 765 645 l 769 649 l 813 692 l 819 699 l 828 699 l 872 699 l 872 677 l 872 655 l 837 655 l 804 623 l 762 455 l 762 452 l 761 450 l 717 364 l 716 360 l 713 358 l 670 315 l 666 311 l 661 309 l 531 266 l 528 265 l 524 265 l 438 265 l 434 265 l 431 266 l 300 309 l 296 311 l 292 315 l 249 358 l 246 360 l 244 364 l 201 450 l 200 452 l 199 455 l 157 623 l 125 655 l 90 655 z m 90 677 l 90 699 l 134 699 l 143 699 l 149 692 l 192 649 l 197 645 l 198 639 l 241 468 l 282 386 l 319 349 l 441 308 l 521 308 l 643 349 l 680 386 l 721 468 l 764 639 l 765 645 l 769 649 l 813 692 l 819 699 l 828 699 l 872 699 l 872 677 l 872 655 l 837 655 l 804 623 l 762 455 l 762 452 l 761 450 l 717 364 l 716 360 l 713 358 l 670 315 l 666 311 l 661 309 l 531 266 l 528 265 l 524 265 l 438 265 l 434 265 l 431 266 l 300 309 l 296 311 l 292 315 l 249 358 l 246 360 l 244 364 l 201 450 l 200 452 l 199 455 l 157 623 l 125 655 l 90 655 z "},"":{"ha":824,"x_min":0,"x_max":0,"o":"m 171 338 l 314 4 l 108 4 l 108 26 z m 123 355 l 109 48 l 249 48 l 131 323 z m 123 355 l 86 501 l 86 681 l 132 819 l 226 913 l 365 959 l 459 959 l 597 913 l 691 819 l 737 681 l 737 501 l 693 323 l 575 48 l 715 48 l 715 4 l 509 4 l 651 337 l 694 506 l 694 674 l 653 796 l 574 875 l 452 916 l 372 916 l 250 875 l 170 796 l 130 674 l 130 506 z m 109 48 l 108 26 l 108 48 z "},"":{"ha":874,"x_min":0,"x_max":0,"o":"m 372 634 l 382 614 l 298 572 l 217 491 l 175 408 l 134 283 l 134 161 l 172 86 l 247 48 l 324 48 l 403 87 l 531 215 b 614 341 554 250 587 300 l 700 512 l 742 641 l 763 634 l 784 627 l 740 497 l 740 495 l 739 494 l 652 320 l 652 319 l 651 318 l 564 188 l 563 186 l 561 184 l 431 54 l 429 52 l 426 50 l 339 7 l 334 4 l 329 4 l 242 4 l 237 4 l 232 7 l 146 50 l 139 53 l 136 60 l 93 147 l 90 151 l 90 156 l 90 286 l 90 290 l 91 293 l 135 424 l 135 425 l 136 426 l 179 513 l 181 516 l 183 519 l 270 606 l 273 608 l 276 610 l 363 653 z m 372 634 l 372 655 l 459 655 l 468 655 l 475 649 l 518 606 l 520 603 l 522 600 l 565 513 l 566 511 l 567 509 l 653 164 l 694 82 l 729 48 l 763 48 l 763 26 l 763 4 l 720 4 l 711 4 l 704 11 l 661 54 l 658 57 l 657 60 l 613 147 l 612 149 l 612 151 l 526 496 l 485 577 l 450 612 l 372 612 z m 372 634 l 372 655 l 459 655 l 468 655 l 475 649 l 518 606 l 520 603 l 522 600 l 565 513 l 566 511 l 567 509 l 653 164 l 694 82 l 729 48 l 763 48 l 763 26 l 763 4 l 720 4 l 711 4 l 704 11 l 661 54 l 658 57 l 657 60 l 613 147 l 612 149 l 612 151 l 526 496 l 485 577 l 450 612 l 372 612 z "},"":{"ha":835,"x_min":0,"x_max":0,"o":"m 549 938 l 558 918 l 475 876 l 393 794 l 308 625 l 266 497 l 223 325 l 179 66 l 136 -280 l 115 -278 l 93 -275 l 137 73 l 180 333 l 180 334 l 180 335 l 224 509 l 224 510 l 224 510 l 268 641 l 268 642 l 269 643 l 356 817 l 357 820 l 360 823 l 446 909 l 449 912 l 452 914 l 539 957 z m 549 938 l 549 959 l 635 959 l 644 959 l 651 953 l 738 866 l 744 860 l 744 851 l 744 720 l 744 715 l 742 711 l 698 624 l 697 621 l 694 618 l 651 575 l 648 572 l 645 571 l 558 527 l 554 525 l 549 525 l 418 525 l 418 547 l 418 569 l 543 569 l 623 608 l 661 647 l 701 726 l 701 842 l 626 916 l 549 916 z m 418 547 l 428 566 l 515 523 l 518 521 l 521 519 l 607 432 l 610 430 l 611 426 l 655 340 l 657 335 l 657 330 l 657 200 l 657 195 l 655 190 l 611 103 l 610 100 l 607 98 l 564 54 l 561 52 l 558 50 l 472 7 l 467 4 l 462 4 l 375 4 l 370 4 l 365 7 l 278 50 l 275 52 l 273 54 l 229 98 l 226 101 l 224 106 l 181 236 l 201 243 l 222 250 l 264 125 l 301 87 l 380 48 l 457 48 l 536 87 l 574 126 l 614 205 l 614 325 l 574 404 l 492 486 l 409 527 z m 549 938 l 549 959 l 635 959 l 644 959 l 651 953 l 738 866 l 744 860 l 744 851 l 744 720 l 744 715 l 742 711 l 698 624 l 697 621 l 694 618 l 651 575 l 648 572 l 645 571 l 558 527 l 554 525 l 549 525 l 418 525 l 418 547 l 418 569 l 543 569 l 623 608 l 661 647 l 701 726 l 701 842 l 626 916 l 549 916 z m 418 547 l 428 566 l 515 523 l 518 521 l 521 519 l 607 432 l 610 430 l 611 426 l 655 340 l 657 335 l 657 330 l 657 200 l 657 195 l 655 190 l 611 103 l 610 100 l 607 98 l 564 54 l 561 52 l 558 50 l 472 7 l 467 4 l 462 4 l 375 4 l 370 4 l 365 7 l 278 50 l 275 52 l 273 54 l 229 98 l 226 101 l 224 106 l 181 236 l 201 243 l 222 250 l 264 125 l 301 87 l 380 48 l 457 48 l 536 87 l 574 126 l 614 205 l 614 325 l 574 404 l 492 486 l 409 527 z m 418 547 l 428 566 l 515 523 l 518 521 l 521 519 l 607 432 l 610 430 l 611 426 l 655 340 l 657 335 l 657 330 l 657 200 l 657 195 l 655 190 l 611 103 l 610 100 l 607 98 l 564 54 l 561 52 l 558 50 l 472 7 l 467 4 l 462 4 l 375 4 l 370 4 l 365 7 l 278 50 l 275 52 l 273 54 l 229 98 l 226 101 l 224 106 l 181 236 l 201 243 l 222 250 l 264 125 l 301 87 l 380 48 l 457 48 l 536 87 l 574 126 l 614 205 l 614 325 l 574 404 l 492 486 l 409 527 z "},"":{"ha":911,"x_min":0,"x_max":0,"o":"m 106 503 l 90 519 l 177 606 l 180 608 l 183 610 l 270 653 l 274 655 l 279 655 l 323 655 l 328 655 l 332 653 l 419 610 l 422 608 l 425 606 l 468 562 l 472 559 l 473 554 l 517 424 l 518 420 l 518 417 l 518 243 l 518 241 l 518 239 l 474 22 l 453 26 l 432 30 l 475 245 l 475 413 l 434 535 l 397 572 l 318 612 l 284 612 l 205 572 l 121 488 z m 800 634 l 821 627 l 777 495 l 732 406 l 472 15 l 386 -156 l 343 -285 l 302 -271 l 346 -139 l 434 37 l 694 428 z m 800 634 l 821 627 l 777 495 l 732 406 l 472 15 l 386 -156 l 343 -285 l 302 -271 l 346 -139 l 434 37 l 694 428 z "},"":{"ha":739,"x_min":0,"x_max":0,"o":"m 451 611 b 450 612 451 611 451 611 l 334 612 l 255 572 l 174 492 l 134 370 l 134 247 l 174 125 l 212 87 l 291 48 l 367 48 l 446 87 l 527 168 l 568 290 l 568 413 l 527 535 z m 450 612 b 459 655 446 618 419 655 l 459 612 z m 407 655 l 355 708 l 307 802 l 307 903 l 363 959 l 464 959 l 559 912 l 648 823 l 617 792 l 533 876 l 454 916 l 381 916 l 351 885 l 351 812 l 390 733 l 565 559 l 611 420 l 611 283 l 565 145 l 472 52 l 378 4 l 280 4 l 186 52 l 136 101 l 90 240 l 90 377 l 136 515 l 229 608 l 324 655 z "},"":{"ha":651,"x_min":0,"x_max":0,"o":"m 546 547 l 531 532 l 490 572 l 411 612 l 291 612 l 220 577 l 220 509 l 258 434 l 379 394 l 372 373 l 366 353 l 235 396 l 227 399 l 223 407 l 179 494 l 177 498 l 177 503 l 177 590 l 177 604 l 189 610 l 276 653 l 280 655 l 286 655 l 416 655 l 421 655 l 426 653 l 512 610 l 515 608 l 518 606 l 561 562 z m 372 373 l 378 352 l 210 310 l 134 234 l 134 161 l 172 86 l 247 48 l 367 48 l 446 87 l 531 172 l 546 156 l 561 141 l 475 54 l 472 52 l 469 50 l 382 7 l 378 4 l 372 4 l 242 4 l 237 4 l 232 7 l 146 50 l 139 53 l 136 60 l 93 147 l 90 151 l 90 156 l 90 243 l 90 252 l 97 258 l 183 345 l 188 349 l 194 351 l 367 394 z m 372 373 l 378 352 l 210 310 l 134 234 l 134 161 l 172 86 l 247 48 l 367 48 l 446 87 l 531 172 l 546 156 l 561 141 l 475 54 l 472 52 l 469 50 l 382 7 l 378 4 l 372 4 l 242 4 l 237 4 l 232 7 l 146 50 l 139 53 l 136 60 l 93 147 l 90 151 l 90 156 l 90 243 l 90 252 l 97 258 l 183 345 l 188 349 l 194 351 l 367 394 z "},"":{"ha":689,"x_min":0,"x_max":0,"o":"m 416 938 l 426 918 l 342 876 l 307 842 l 307 816 l 341 783 l 463 742 l 589 742 l 589 720 l 589 699 l 459 699 l 456 699 l 452 700 l 322 743 l 317 745 l 314 749 l 270 792 l 264 798 l 264 807 l 264 851 l 264 860 l 270 866 l 314 909 l 316 912 l 319 914 l 406 957 z m 589 720 l 599 701 l 427 615 l 299 530 l 174 405 l 134 283 l 134 205 l 173 126 l 256 43 l 384 -43 l 389 -46 l 392 -51 l 435 -138 l 438 -142 l 438 -148 l 438 -234 l 438 -243 l 431 -250 l 388 -293 l 381 -299 l 372 -299 l 286 -299 l 272 -299 l 266 -287 l 223 -201 l 242 -191 l 262 -181 l 299 -256 l 363 -256 l 394 -225 l 394 -153 l 356 -76 l 230 8 l 228 9 l 227 11 l 140 98 l 138 100 l 136 103 l 93 190 l 90 195 l 90 200 l 90 286 l 90 290 l 91 293 l 135 424 l 136 428 l 140 432 l 270 562 l 272 564 l 274 565 l 404 652 l 405 652 l 406 653 l 580 740 z m 589 720 l 599 701 l 427 615 l 299 530 l 174 405 l 134 283 l 134 205 l 173 126 l 256 43 l 384 -43 l 389 -46 l 392 -51 l 435 -138 l 438 -142 l 438 -148 l 438 -234 l 438 -243 l 431 -250 l 388 -293 l 381 -299 l 372 -299 l 286 -299 l 272 -299 l 266 -287 l 223 -201 l 242 -191 l 262 -181 l 299 -256 l 363 -256 l 394 -225 l 394 -153 l 356 -76 l 230 8 l 228 9 l 227 11 l 140 98 l 138 100 l 136 103 l 93 190 l 90 195 l 90 200 l 90 286 l 90 290 l 91 293 l 135 424 l 136 428 l 140 432 l 270 562 l 272 564 l 274 565 l 404 652 l 405 652 l 406 653 l 580 740 z "},"":{"ha":868,"x_min":0,"x_max":0,"o":"m 110 460 l 90 470 l 134 557 l 135 560 l 138 562 l 225 649 l 231 655 l 240 655 l 327 655 l 336 655 l 342 649 l 385 606 l 392 599 l 392 590 l 392 503 l 392 501 l 391 498 l 348 324 l 261 20 l 240 26 l 219 32 l 306 335 l 348 506 l 348 581 l 318 612 l 249 612 l 171 534 l 129 450 z m 327 330 l 307 340 l 394 513 l 396 516 l 398 519 l 485 606 l 487 608 l 491 610 l 577 653 l 582 655 l 587 655 l 674 655 l 683 655 l 689 649 l 776 562 l 782 556 l 782 547 l 782 417 l 782 415 l 782 412 l 739 195 l 738 195 l 738 194 l 608 -283 l 587 -278 l 566 -272 l 696 205 l 739 419 l 739 538 l 665 612 l 592 612 l 513 572 l 431 491 l 346 320 z m 327 330 l 307 340 l 394 513 l 396 516 l 398 519 l 485 606 l 487 608 l 491 610 l 577 653 l 582 655 l 587 655 l 674 655 l 683 655 l 689 649 l 776 562 l 782 556 l 782 547 l 782 417 l 782 415 l 782 412 l 739 195 l 738 195 l 738 194 l 608 -283 l 587 -278 l 566 -272 l 696 205 l 739 419 l 739 538 l 665 612 l 592 612 l 513 572 l 431 491 l 346 320 z "},"":{"ha":999,"x_min":0,"x_max":0,"o":"m 788 427 l 906 348 l 882 312 l 775 383 l 740 278 l 696 189 l 605 53 l 508 4 l 407 4 l 355 57 l 308 151 l 308 289 l 351 506 l 351 581 l 320 612 l 252 612 l 174 534 l 132 450 l 112 460 l 93 470 l 138 560 l 234 655 l 338 655 l 395 599 l 395 501 l 351 284 l 351 161 l 391 82 l 425 48 l 498 48 l 575 86 l 659 212 l 657 209 l 701 296 l 700 293 l 738 409 z m 787 427 l 734 416 l 660 490 l 570 624 l 525 760 l 525 856 l 576 959 l 682 959 l 781 909 l 829 767 l 829 632 l 788 427 z m 694 517 l 750 461 l 785 636 l 785 760 l 746 879 l 672 916 l 603 916 l 568 846 l 568 767 l 610 643 z m 694 517 l 695 516 l 692 519 z "},"":{"ha":481,"x_min":0,"x_max":0,"o":"m 241 634 l 262 628 l 175 324 l 132 154 l 132 78 l 163 48 l 232 48 l 310 126 l 352 209 l 371 200 l 390 190 l 347 103 l 345 100 l 343 98 l 256 11 l 250 4 l 241 4 l 154 4 l 145 4 l 139 11 l 95 54 l 89 60 l 89 69 l 89 156 l 89 159 l 90 162 l 133 335 l 220 640 z "},"":{"ha":825,"x_min":0,"x_max":0,"o":"m 285 634 l 306 628 l 132 20 l 111 26 l 90 32 l 264 640 z m 719 590 l 703 575 l 666 612 l 637 612 l 558 572 l 387 401 l 384 399 l 381 397 l 294 354 l 290 352 l 285 352 l 241 352 l 241 373 l 241 395 l 280 395 l 359 435 l 530 606 l 532 608 l 535 610 l 622 653 l 627 655 l 632 655 l 675 655 l 684 655 l 691 649 l 734 606 z m 241 373 l 251 393 l 338 349 l 341 348 l 344 345 l 387 302 l 390 299 l 392 295 l 477 82 l 511 48 l 536 48 l 573 85 l 589 69 l 604 54 l 561 11 l 554 4 l 545 4 l 502 4 l 493 4 l 486 11 l 443 54 l 440 57 l 438 61 l 353 274 l 315 312 l 232 354 z m 719 590 l 703 575 l 666 612 l 637 612 l 558 572 l 387 401 l 384 399 l 381 397 l 294 354 l 290 352 l 285 352 l 241 352 l 241 373 l 241 395 l 280 395 l 359 435 l 530 606 l 532 608 l 535 610 l 622 653 l 627 655 l 632 655 l 675 655 l 684 655 l 691 649 l 734 606 z m 241 373 l 251 393 l 338 349 l 341 348 l 344 345 l 387 302 l 390 299 l 392 295 l 477 82 l 511 48 l 536 48 l 573 85 l 589 69 l 604 54 l 561 11 l 554 4 l 545 4 l 502 4 l 493 4 l 486 11 l 443 54 l 440 57 l 438 61 l 353 274 l 315 312 l 232 354 z m 241 373 l 251 393 l 338 349 l 341 348 l 344 345 l 387 302 l 390 299 l 392 295 l 477 82 l 511 48 l 536 48 l 573 85 l 589 69 l 604 54 l 561 11 l 554 4 l 545 4 l 502 4 l 493 4 l 486 11 l 443 54 l 440 57 l 438 61 l 353 274 l 315 312 l 232 354 z "},"":{"ha":764,"x_min":0,"x_max":0,"o":"m 90 938 l 90 959 l 177 959 l 182 959 l 187 957 l 274 914 l 277 912 l 279 909 l 323 866 l 326 863 l 327 859 l 675 34 l 655 26 l 635 18 l 289 838 l 251 876 l 172 916 l 90 916 z m 394 634 l 414 625 l 154 17 l 134 26 l 114 35 l 374 642 z m 394 634 l 414 625 l 154 17 l 134 26 l 114 35 l 374 642 z "},"":{"ha":1049,"x_min":0,"x_max":0,"o":"m 374 634 l 395 628 l 135 -284 l 114 -278 l 93 -272 l 353 640 z m 331 460 l 352 456 l 309 241 l 309 122 l 383 48 l 456 48 l 535 87 l 617 169 l 702 340 l 722 330 l 741 320 l 654 147 l 653 143 l 650 141 l 563 54 l 561 52 l 558 50 l 471 7 l 466 4 l 461 4 l 374 4 l 365 4 l 359 11 l 272 98 l 266 104 l 266 113 l 266 243 l 266 245 l 266 247 l 310 464 z m 808 634 l 829 628 l 743 324 l 700 154 l 700 78 l 731 48 l 799 48 l 877 126 l 919 209 l 939 200 l 958 190 l 915 103 l 913 100 l 911 98 l 824 11 l 817 4 l 808 4 l 722 4 l 713 4 l 706 11 l 663 54 l 656 60 l 656 69 l 656 156 l 656 159 l 657 162 l 701 335 l 788 640 z m 331 460 l 352 456 l 309 241 l 309 122 l 383 48 l 456 48 l 535 87 l 617 169 l 702 340 l 722 330 l 741 320 l 654 147 l 653 143 l 650 141 l 563 54 l 561 52 l 558 50 l 471 7 l 466 4 l 461 4 l 374 4 l 365 4 l 359 11 l 272 98 l 266 104 l 266 113 l 266 243 l 266 245 l 266 247 l 310 464 z m 808 634 l 829 628 l 743 324 l 700 154 l 700 78 l 731 48 l 799 48 l 877 126 l 919 209 l 939 200 l 958 190 l 915 103 l 913 100 l 911 98 l 824 11 l 817 4 l 808 4 l 722 4 l 713 4 l 706 11 l 663 54 l 656 60 l 656 69 l 656 156 l 656 159 l 657 162 l 701 335 l 788 640 z m 808 634 l 829 628 l 743 324 l 700 154 l 700 78 l 731 48 l 799 48 l 877 126 l 919 209 l 939 200 l 958 190 l 915 103 l 913 100 l 911 98 l 824 11 l 817 4 l 808 4 l 722 4 l 713 4 l 706 11 l 663 54 l 656 60 l 656 69 l 656 156 l 656 159 l 657 162 l 701 335 l 788 640 z "},"":{"ha":786,"x_min":0,"x_max":0,"o":"m 111 634 l 111 655 l 241 655 l 267 655 l 262 630 l 219 369 l 176 152 l 175 151 l 175 149 l 131 19 l 111 26 l 90 33 l 133 162 l 176 377 l 215 612 l 111 612 z m 675 634 l 696 627 l 652 495 l 607 406 l 518 273 l 385 139 l 251 50 l 118 5 l 104 47 l 231 89 b 356 172 242 96 356 172 l 485 300 l 569 428 z m 675 634 l 696 627 l 652 495 l 607 406 l 518 273 l 385 139 l 251 50 l 118 5 l 104 47 l 231 89 b 356 172 242 96 356 172 l 485 300 l 569 428 z "},"":{"ha":679,"x_min":0,"x_max":0,"o":"m 416 938 l 426 918 l 342 876 l 307 842 l 307 816 l 341 783 l 463 742 l 589 742 l 589 720 l 589 699 l 459 699 l 456 699 l 452 700 l 322 743 l 317 745 l 314 749 l 270 792 l 264 798 l 264 807 l 264 851 l 264 860 l 270 866 l 314 909 l 316 912 l 319 914 l 406 957 z m 459 720 l 466 700 l 337 657 l 258 618 l 220 542 l 220 469 l 297 392 l 419 352 l 503 352 l 503 330 l 503 308 l 416 308 l 412 308 l 409 309 l 279 353 l 274 354 l 270 358 l 183 445 l 177 451 l 177 460 l 177 547 l 177 552 l 179 557 l 223 643 l 226 650 l 232 653 l 319 696 l 321 697 l 322 698 l 452 741 z m 416 330 l 421 309 l 250 266 l 172 227 l 134 151 l 134 78 l 212 0 l 382 -85 l 385 -86 l 388 -89 l 431 -132 l 438 -139 l 438 -148 l 438 -234 l 438 -248 l 426 -254 l 339 -297 l 334 -299 l 329 -299 l 242 -299 l 242 -278 l 242 -256 l 324 -256 l 394 -221 l 394 -157 l 360 -122 l 189 -37 l 186 -35 l 183 -33 l 97 54 l 90 60 l 90 69 l 90 156 l 90 161 l 93 166 l 136 253 l 139 259 l 146 262 l 232 306 l 235 307 l 237 308 l 411 351 z m 459 720 l 466 700 l 337 657 l 258 618 l 220 542 l 220 469 l 297 392 l 419 352 l 503 352 l 503 330 l 503 308 l 416 308 l 412 308 l 409 309 l 279 353 l 274 354 l 270 358 l 183 445 l 177 451 l 177 460 l 177 547 l 177 552 l 179 557 l 223 643 l 226 650 l 232 653 l 319 696 l 321 697 l 322 698 l 452 741 z m 416 330 l 421 309 l 250 266 l 172 227 l 134 151 l 134 78 l 212 0 l 382 -85 l 385 -86 l 388 -89 l 431 -132 l 438 -139 l 438 -148 l 438 -234 l 438 -248 l 426 -254 l 339 -297 l 334 -299 l 329 -299 l 242 -299 l 242 -278 l 242 -256 l 324 -256 l 394 -221 l 394 -157 l 360 -122 l 189 -37 l 186 -35 l 183 -33 l 97 54 l 90 60 l 90 69 l 90 156 l 90 161 l 93 166 l 136 253 l 139 259 l 146 262 l 232 306 l 235 307 l 237 308 l 411 351 z m 416 330 l 421 309 l 250 266 l 172 227 l 134 151 l 134 78 l 212 0 l 382 -85 l 385 -86 l 388 -89 l 431 -132 l 438 -139 l 438 -148 l 438 -234 l 438 -248 l 426 -254 l 339 -297 l 334 -299 l 329 -299 l 242 -299 l 242 -278 l 242 -256 l 324 -256 l 394 -221 l 394 -157 l 360 -122 l 189 -37 l 186 -35 l 183 -33 l 97 54 l 90 60 l 90 69 l 90 156 l 90 161 l 93 166 l 136 253 l 139 259 l 146 262 l 232 306 l 235 307 l 237 308 l 411 351 z "},"":{"ha":700,"x_min":0,"x_max":0,"o":"m 329 634 b 255 572 302 620 277 583 l 174 492 l 134 370 l 134 247 l 174 125 l 212 87 l 291 48 l 367 48 l 446 87 l 527 168 l 568 290 l 568 413 l 527 535 l 490 572 l 411 612 l 329 612 z m 329 634 l 329 655 l 416 655 l 421 655 l 426 653 l 512 610 l 515 608 l 518 606 l 561 562 l 565 559 l 567 554 l 610 424 l 611 420 l 611 417 l 611 286 l 611 283 l 610 280 l 567 149 l 565 145 l 561 141 l 475 54 l 472 52 l 469 50 l 382 7 l 378 4 l 372 4 l 286 4 l 280 4 l 276 7 l 189 50 l 186 52 l 183 54 l 140 98 l 136 101 l 135 106 l 91 236 l 90 240 l 90 243 l 90 373 l 90 377 l 91 380 l 135 510 l 136 515 l 140 519 l 227 606 l 229 608 l 232 610 l 319 653 z "},"":{"ha":978,"x_min":0,"x_max":0,"o":"m 409 634 l 430 628 l 257 20 l 236 26 l 215 32 l 389 640 z m 626 634 l 648 637 l 691 377 l 734 162 l 777 33 l 757 26 l 736 19 l 693 149 l 692 151 l 692 152 l 649 369 l 605 630 z m 106 503 l 90 519 l 177 606 l 181 609 l 186 611 l 316 654 l 319 655 l 323 655 l 887 655 l 887 634 l 887 612 l 326 612 l 204 571 l 121 488 z m 626 634 l 648 637 l 691 377 l 734 162 l 777 33 l 757 26 l 736 19 l 693 149 l 692 151 l 692 152 l 649 369 l 605 630 z m 106 503 l 90 519 l 177 606 l 181 609 l 186 611 l 316 654 l 319 655 l 323 655 l 887 655 l 887 634 l 887 612 l 326 612 l 204 571 l 121 488 z m 106 503 l 90 519 l 177 606 l 181 609 l 186 611 l 316 654 l 319 655 l 323 655 l 887 655 l 887 634 l 887 612 l 326 612 l 204 571 l 121 488 z "},"":{"ha":875,"x_min":0,"x_max":0,"o":"m 270 223 l 135 -283 l 93 -272 z m 311 374 b 309 372 311 374 310 373 l 309 247 l 350 125 l 387 87 l 466 48 l 543 48 l 622 87 l 703 168 l 743 290 l 743 413 l 703 535 l 665 572 l 586 612 l 510 612 l 431 572 l 350 492 z m 309 372 b 266 373 302 366 266 334 l 309 373 z m 266 375 l 267 379 l 312 515 l 405 608 l 500 655 l 597 655 l 691 608 l 741 559 l 787 420 l 787 283 l 741 145 l 648 52 l 553 4 l 456 4 l 362 52 l 312 101 z "},"":{"ha":853,"x_min":0,"x_max":0,"o":"m 409 614 l 512 610 l 515 608 l 565 559 l 611 420 l 611 283 l 565 145 l 472 52 l 378 4 l 280 4 l 186 52 l 136 101 l 90 240 l 90 377 l 136 515 l 229 608 l 324 655 l 763 655 l 763 612 z m 409 613 l 408 613 l 406 614 z m 408 613 l 334 612 l 255 572 l 174 492 l 134 370 l 134 247 l 174 125 l 212 87 l 291 48 l 367 48 l 446 87 l 527 168 l 568 290 l 568 413 l 527 535 l 490 572 z "},"":{"ha":890,"x_min":0,"x_max":0,"o":"m 496 634 l 517 629 l 387 21 l 366 26 l 345 31 l 475 638 z m 106 503 l 90 519 l 177 606 l 181 609 l 186 611 l 316 654 l 319 655 l 323 655 l 800 655 l 800 634 l 800 612 l 326 612 l 204 571 l 121 488 z m 106 503 l 90 519 l 177 606 l 181 609 l 186 611 l 316 654 l 319 655 l 323 655 l 800 655 l 800 634 l 800 612 l 326 612 l 204 571 l 121 488 z "},"":{"ha":914,"x_min":0,"x_max":0,"o":"m 110 460 l 90 470 l 134 557 l 135 560 l 138 562 l 225 649 l 231 655 l 240 655 l 327 655 l 336 655 l 342 649 l 385 606 l 392 599 l 392 590 l 392 503 l 392 500 l 391 497 l 305 240 l 305 122 l 379 48 l 453 48 l 575 88 l 656 169 l 740 337 l 782 506 l 782 634 l 804 634 l 826 634 l 826 503 l 826 501 l 825 498 l 782 325 l 781 322 l 780 320 l 693 147 l 692 143 l 689 141 l 602 54 l 599 50 l 594 49 l 464 5 l 460 4 l 457 4 l 370 4 l 361 4 l 355 11 l 268 98 l 262 104 l 262 113 l 262 243 l 262 247 l 263 250 l 348 507 l 348 581 l 318 612 l 249 612 l 171 534 l 129 450 z "},"":{"ha":921,"x_min":0,"x_max":0,"o":"m 322 54 l 355 163 l 442 382 l 531 560 l 627 655 l 731 655 l 831 556 l 831 413 l 785 277 l 695 141 l 558 50 l 422 4 l 352 4 l 266 -284 l 224 -272 l 307 4 l 283 4 l 189 52 l 140 100 l 93 195 l 93 333 l 139 472 l 232 565 l 322 610 l 332 590 l 341 571 l 258 529 l 177 448 l 136 326 l 136 205 l 176 126 l 214 87 l 293 48 l 317 48 z m 482 364 l 396 149 l 365 48 l 415 48 l 539 89 l 663 172 l 746 296 l 788 420 l 788 538 l 713 612 l 645 612 l 567 534 z m 482 364 b 481 364 482 364 481 364 l 482 365 b 482 364 482 365 482 365 z m 396 149 b 395 148 396 149 395 148 l 396 150 b 396 149 396 150 396 149 z "},"":{"ha":917,"x_min":0,"x_max":0,"o":"m 156 634 l 156 655 l 243 655 l 252 655 l 258 649 l 345 562 l 348 559 l 350 554 l 609 -179 l 686 -256 l 764 -256 l 764 -278 l 764 -299 l 677 -299 l 668 -299 l 661 -293 l 575 -206 l 571 -203 l 569 -198 l 311 535 l 234 612 l 156 612 z m 807 634 l 826 624 l 782 536 l 694 403 l 260 -74 l 175 -202 l 132 -287 l 93 -268 l 137 -180 l 226 -47 l 660 430 z m 807 634 l 826 624 l 782 536 l 694 403 l 260 -74 l 175 -202 l 132 -287 l 93 -268 l 137 -180 l 226 -47 l 660 430 z "},"":{"ha":1089,"x_min":0,"x_max":0,"o":"m 761 938 l 782 932 l 434 -284 l 414 -278 l 393 -272 l 740 943 z m 110 460 l 90 470 l 134 557 l 135 560 l 138 562 l 225 649 l 231 655 l 240 655 l 327 655 l 336 655 l 342 649 l 385 606 l 392 599 l 392 590 l 392 503 l 392 501 l 391 499 l 348 284 l 348 161 l 386 86 l 462 48 l 540 48 l 662 88 l 744 170 l 828 297 l 914 511 l 957 641 l 978 634 l 998 627 l 955 497 l 955 496 l 954 495 l 868 278 l 867 276 l 866 274 l 779 144 l 778 142 l 776 141 l 689 54 l 686 50 l 681 49 l 551 5 l 547 4 l 544 4 l 457 4 l 452 4 l 447 7 l 360 50 l 354 53 l 351 60 l 307 147 l 305 151 l 305 156 l 305 286 l 305 289 l 305 291 l 348 506 l 348 581 l 318 612 l 249 612 l 171 534 l 129 450 z m 110 460 l 90 470 l 134 557 l 135 560 l 138 562 l 225 649 l 231 655 l 240 655 l 327 655 l 336 655 l 342 649 l 385 606 l 392 599 l 392 590 l 392 503 l 392 501 l 391 499 l 348 284 l 348 161 l 386 86 l 462 48 l 540 48 l 662 88 l 744 170 l 828 297 l 914 511 l 957 641 l 978 634 l 998 627 l 955 497 l 955 496 l 954 495 l 868 278 l 867 276 l 866 274 l 779 144 l 778 142 l 776 141 l 689 54 l 686 50 l 681 49 l 551 5 l 547 4 l 544 4 l 457 4 l 452 4 l 447 7 l 360 50 l 354 53 l 351 60 l 307 147 l 305 151 l 305 156 l 305 286 l 305 289 l 305 291 l 348 506 l 348 581 l 318 612 l 249 612 l 171 534 l 129 450 z "},"":{"ha":958,"x_min":0,"x_max":0,"o":"m 329 634 l 339 614 l 257 573 l 175 450 l 134 326 l 134 203 l 174 81 l 208 48 l 280 48 l 358 86 l 441 212 l 459 200 l 477 188 l 390 57 l 387 53 l 382 50 l 295 7 l 291 4 l 286 4 l 199 4 l 190 4 l 183 11 l 140 54 l 136 58 l 135 63 l 91 193 l 90 196 l 90 200 l 90 330 l 90 333 l 91 337 l 135 467 l 136 470 l 137 472 l 224 602 l 227 607 l 232 610 l 319 653 z m 503 373 l 524 368 l 482 201 l 522 81 l 555 48 l 628 48 l 705 86 l 787 209 l 828 333 l 828 457 l 787 579 l 748 618 l 763 634 l 778 649 l 822 606 l 825 602 l 827 597 l 870 467 l 872 464 l 872 460 l 872 330 l 872 326 l 870 323 l 827 193 l 826 190 l 824 188 l 738 57 l 734 53 l 729 50 l 643 7 l 638 4 l 633 4 l 546 4 l 537 4 l 531 11 l 487 54 l 484 58 l 482 63 l 439 193 l 437 199 l 438 205 l 482 379 z m 503 373 l 524 368 l 482 201 l 522 81 l 555 48 l 628 48 l 705 86 l 787 209 l 828 333 l 828 457 l 787 579 l 748 618 l 763 634 l 778 649 l 822 606 l 825 602 l 827 597 l 870 467 l 872 464 l 872 460 l 872 330 l 872 326 l 870 323 l 827 193 l 826 190 l 824 188 l 738 57 l 734 53 l 729 50 l 643 7 l 638 4 l 633 4 l 546 4 l 537 4 l 531 11 l 487 54 l 484 58 l 482 63 l 439 193 l 437 199 l 438 205 l 482 379 z "},"":{"ha":915,"x_min":0,"x_max":0,"o":"m 154 938 l 172 949 l 476 472 l 484 459 l 475 447 l 128 -30 l 111 -17 l 93 -5 l 432 461 l 136 926 z m 154 938 l 154 959 l 762 959 l 779 959 l 783 942 l 826 725 l 805 720 l 784 716 l 744 916 l 154 916 z m 111 -17 l 111 4 l 744 4 l 784 204 l 805 200 l 826 195 l 783 -22 l 779 -39 l 762 -39 l 111 -39 z m 154 938 l 154 959 l 762 959 l 779 959 l 783 942 l 826 725 l 805 720 l 784 716 l 744 916 l 154 916 z m 111 -17 l 111 4 l 744 4 l 784 204 l 805 200 l 826 195 l 783 -22 l 779 -39 l 762 -39 l 111 -39 z m 111 -17 l 111 4 l 744 4 l 784 204 l 805 200 l 826 195 l 783 -22 l 779 -39 l 762 -39 l 111 -39 z "},"":{"ha":685,"x_min":0,"x_max":0,"o":"m 248 547 l 264 532 l 149 417 l 264 302 l 248 286 l 233 271 l 103 401 l 88 417 l 103 432 l 233 562 z m 118 417 l 118 438 l 596 438 l 596 417 l 596 395 l 118 395 z m 118 417 l 118 438 l 596 438 l 596 417 l 596 395 l 118 395 z "},"":{"ha":472,"x_min":0,"x_max":0,"o":"m 236 634 l 258 634 l 258 156 l 236 156 l 214 156 l 214 634 z m 106 503 l 90 519 l 134 562 l 220 649 l 236 664 l 251 649 l 381 519 l 366 503 l 351 488 l 236 603 l 164 532 l 121 488 z m 106 503 l 90 519 l 134 562 l 220 649 l 236 664 l 251 649 l 381 519 l 366 503 l 351 488 l 236 603 l 164 532 l 121 488 z "},"":{"ha":685,"x_min":0,"x_max":0,"o":"m 435 547 l 450 562 l 580 432 l 596 417 l 580 401 l 450 271 l 435 286 l 419 302 l 534 417 l 419 532 z m 88 417 l 88 438 l 565 438 l 565 417 l 565 395 l 88 395 z m 88 417 l 88 438 l 565 438 l 565 417 l 565 395 l 88 395 z "},"":{"ha":472,"x_min":0,"x_max":0,"o":"m 236 677 l 258 677 l 258 200 l 236 200 l 214 200 l 214 677 z m 106 330 l 121 345 l 164 302 l 149 286 l 134 271 l 90 315 z m 149 286 l 164 302 l 236 230 l 351 345 l 366 330 l 381 315 l 251 184 l 236 169 l 220 184 l 134 271 z m 106 330 l 121 345 l 164 302 l 149 286 l 134 271 l 90 315 z m 149 286 l 164 302 l 236 230 l 351 345 l 366 330 l 381 315 l 251 184 l 236 169 l 220 184 l 134 271 z m 149 286 l 164 302 l 236 230 l 351 345 l 366 330 l 381 315 l 251 184 l 236 169 l 220 184 l 134 271 z "},"":{"ha":543,"x_min":0,"x_max":0,"o":"m 436 720 l 458 720 l 458 156 l 436 156 l 414 156 l 414 720 z m 89 720 l 89 742 l 436 742 l 436 720 l 436 699 l 89 699 z m 219 460 l 219 482 l 436 482 l 436 460 l 436 438 l 219 438 z m 89 156 l 89 178 l 436 178 l 436 156 l 436 135 l 89 135 z m 89 720 l 89 742 l 436 742 l 436 720 l 436 699 l 89 699 z m 219 460 l 219 482 l 436 482 l 436 460 l 436 438 l 219 438 z m 89 156 l 89 178 l 436 178 l 436 156 l 436 135 l 89 135 z m 219 460 l 219 482 l 436 482 l 436 460 l 436 438 l 219 438 z m 89 156 l 89 178 l 436 178 l 436 156 l 436 135 l 89 135 z m 89 156 l 89 178 l 436 178 l 436 156 l 436 135 l 89 135 z "},"":{"ha":631,"x_min":0,"x_max":0,"o":"m 542 634 l 542 612 l 287 612 l 207 572 l 169 534 l 130 455 l 130 378 l 169 299 l 207 261 l 287 221 l 542 221 l 542 200 l 542 178 l 281 178 l 276 178 l 272 180 l 185 224 l 182 225 l 179 228 l 136 271 l 133 274 l 132 277 l 88 364 l 86 368 l 86 373 l 86 460 l 86 465 l 88 470 l 132 557 l 133 560 l 136 562 l 179 606 l 182 608 l 185 610 l 272 653 l 276 655 l 281 655 l 542 655 z m 108 417 l 108 438 l 455 438 l 455 417 l 455 395 l 108 395 z m 108 417 l 108 438 l 455 438 l 455 417 l 455 395 l 108 395 z "},"":{"ha":390,"x_min":0,"x_max":0,"o":"m 151 720 b 130 668 140 709 130 669 l 130 599 l 160 569 l 229 569 l 260 599 l 260 668 l 229 699 l 151 699 z m 151 720 l 151 742 l 238 742 l 247 742 l 253 736 l 297 692 l 303 686 l 303 677 l 303 590 l 303 581 l 297 575 l 253 532 l 247 525 l 238 525 l 151 525 l 142 525 l 136 532 l 92 575 l 86 581 l 86 590 l 86 677 l 86 686 l 92 692 l 136 736 z "},"":{"ha":322,"x_min":0,"x_max":0,"o":"m 176 475 l 219 432 l 234 417 l 219 401 l 176 358 l 160 343 l 145 358 l 101 401 l 86 417 l 101 432 l 145 475 l 160 460 z "},"":{"ha":939,"x_min":0,"x_max":0,"o":"m 90 547 l 90 569 l 134 569 l 144 569 l 151 560 l 455 170 l 438 156 l 420 143 l 123 525 l 90 525 z m 828 938 l 848 928 l 457 147 l 438 156 l 418 166 l 809 947 z m 828 938 l 848 928 l 457 147 l 438 156 l 418 166 l 809 947 z "},"":{"ha":803,"x_min":0,"x_max":0,"o":"m 456 397 l 483 436 l 515 387 l 555 348 l 634 308 l 715 308 l 715 265 l 624 265 l 529 312 l 482 359 z m 456 397 l 455 399 l 428 359 l 381 312 l 287 265 l 233 265 l 135 314 l 86 412 l 86 465 l 135 563 l 233 612 l 287 612 l 381 565 l 428 517 z m 483 436 b 456 479 483 436 432 443 l 482 517 l 529 565 l 624 612 l 715 612 l 715 569 l 634 569 l 555 529 l 515 490 z m 395 490 l 355 529 l 276 569 l 243 569 l 167 531 l 130 455 l 130 422 l 167 346 l 243 308 l 276 308 l 355 348 l 395 387 l 429 438 z m 395 490 l 394 491 l 396 488 z m 395 387 l 396 389 l 394 385 z "},"":{"ha":911,"x_min":0,"x_max":0,"o":"m 455 477 l 482 517 l 529 565 l 624 612 l 677 612 l 775 563 l 824 465 l 824 417 l 802 417 l 822 407 l 775 314 l 677 265 l 624 265 l 529 312 l 482 359 l 455 399 l 428 359 l 381 312 l 287 265 l 233 265 l 135 314 l 86 412 l 86 465 l 135 563 l 233 612 l 287 612 l 381 565 l 428 517 z m 784 417 l 781 417 l 781 455 l 743 531 l 667 569 l 634 569 l 555 529 l 483 436 l 515 387 l 555 348 l 634 308 l 667 308 l 743 346 b 784 417 743 346 759 404 z m 784 417 b 802 417 789 420 796 420 z m 483 436 l 454 397 l 483 436 z m 395 490 l 355 529 l 276 569 l 243 569 l 167 531 l 130 455 l 130 422 l 167 346 l 243 308 l 276 308 l 355 348 l 395 387 l 429 438 z m 395 490 l 394 491 l 396 488 z m 395 387 l 396 389 l 394 385 z "},"":{"ha":383,"x_min":0,"x_max":0,"o":"m 105 851 l 127 851 l 127 -17 l 105 -17 l 83 -17 l 83 851 z m 279 851 l 300 851 l 300 -17 l 279 -17 l 257 -17 l 257 851 z m 279 851 l 300 851 l 300 -17 l 279 -17 l 257 -17 l 257 851 z "},"":{"ha":649,"x_min":0,"x_max":0,"o":"m 106 200 l 85 200 l 85 460 l 85 465 l 87 470 l 130 557 l 132 560 l 134 562 l 178 606 l 180 608 l 184 610 l 270 653 l 275 655 l 280 655 l 367 655 l 372 655 l 377 653 l 463 610 l 467 608 l 469 606 l 512 562 l 515 560 l 516 557 l 560 470 l 562 465 l 562 460 l 562 200 l 540 200 l 519 200 l 519 455 l 479 534 l 441 572 l 362 612 l 285 612 l 206 572 l 168 534 l 128 455 l 128 200 z "},"":{"ha":647,"x_min":0,"x_max":0,"o":"m 106 634 l 128 634 l 128 378 l 168 299 l 206 261 l 285 221 l 362 221 l 441 261 l 479 299 l 519 378 l 519 634 l 540 634 l 562 634 l 562 373 l 562 368 l 560 364 l 516 277 l 515 274 l 512 271 l 469 228 l 467 225 l 463 224 l 377 180 l 372 178 l 367 178 l 280 178 l 275 178 l 270 180 l 184 224 l 180 225 l 178 228 l 134 271 l 132 274 l 130 277 l 87 364 l 85 368 l 85 373 l 85 634 z "},"":{"ha":731,"x_min":0,"x_max":0,"o":"m 628 807 l 618 788 l 545 824 l 472 751 l 431 669 l 389 542 l 345 283 l 345 282 l 345 281 l 302 108 l 301 105 l 300 103 l 257 16 l 255 13 l 253 11 l 209 -33 b 194 -48 209 -33 194 -48 b 178 -33 194 -48 178 -33 l 92 54 l 107 69 l 122 85 l 194 13 l 219 39 l 260 120 l 303 291 l 346 550 l 346 552 l 347 554 l 390 684 l 391 685 l 391 687 l 435 774 l 436 777 l 439 779 l 526 866 l 537 877 l 551 870 l 638 827 z "},"":{"ha":731,"x_min":0,"x_max":0,"o":"m 628 807 l 618 788 l 545 824 l 472 751 l 431 669 l 389 542 l 345 283 l 345 282 l 345 281 l 302 108 l 301 105 l 300 103 l 257 16 l 255 13 l 253 11 l 209 -33 b 194 -48 209 -33 194 -48 b 178 -33 194 -48 178 -33 l 92 54 l 107 69 l 122 85 l 194 13 l 219 39 l 260 120 l 303 291 l 346 550 l 346 552 l 347 554 l 390 684 l 391 685 l 391 687 l 435 774 l 436 777 l 439 779 l 526 866 l 537 877 l 551 870 l 638 827 z m 324 634 b 253 574 299 621 268 581 l 216 498 l 216 422 l 253 346 l 329 308 l 406 308 l 481 346 l 519 422 l 519 498 l 481 574 l 406 612 l 324 612 z m 324 634 l 324 655 l 411 655 l 416 655 l 421 653 l 507 610 l 514 606 l 517 600 l 560 513 l 563 509 l 563 503 l 563 417 l 563 412 l 560 407 l 517 320 l 514 314 l 507 310 l 421 267 l 416 265 l 411 265 l 324 265 l 319 265 l 314 267 l 228 310 l 221 314 l 218 320 l 174 407 l 172 412 l 172 417 l 172 503 l 172 509 l 174 513 l 218 600 l 221 606 l 228 610 l 314 653 z m 324 634 b 253 574 299 621 268 581 l 216 498 l 216 422 l 253 346 l 329 308 l 406 308 l 481 346 l 519 422 l 519 498 l 481 574 l 406 612 l 324 612 z m 324 634 l 324 655 l 411 655 l 416 655 l 421 653 l 507 610 l 514 606 l 517 600 l 560 513 l 563 509 l 563 503 l 563 417 l 563 412 l 560 407 l 517 320 l 514 314 l 507 310 l 421 267 l 416 265 l 411 265 l 324 265 l 319 265 l 314 267 l 228 310 l 221 314 l 218 320 l 174 407 l 172 412 l 172 417 l 172 503 l 172 509 l 174 513 l 218 600 l 221 606 l 228 610 l 314 653 z "},"":{"ha":699,"x_min":0,"x_max":0,"o":"m 566 677 l 583 663 l 149 142 l 132 156 l 116 170 l 550 691 z m 89 503 l 89 525 l 610 525 l 610 503 l 610 482 l 89 482 z m 89 330 l 89 352 l 610 352 l 610 330 l 610 308 l 89 308 z m 89 503 l 89 525 l 610 525 l 610 503 l 610 482 l 89 482 z m 89 330 l 89 352 l 610 352 l 610 330 l 610 308 l 89 308 z m 89 330 l 89 352 l 610 352 l 610 330 l 610 308 l 89 308 z "},"":{"ha":690,"x_min":0,"x_max":0,"o":"m 85 590 l 85 612 l 606 612 l 606 590 l 606 569 l 85 569 z m 85 417 l 85 438 l 606 438 l 606 417 l 606 395 l 85 395 z m 85 243 l 85 265 l 606 265 l 606 243 l 606 221 l 85 221 z m 85 417 l 85 438 l 606 438 l 606 417 l 606 395 l 85 395 z m 85 243 l 85 265 l 606 265 l 606 243 l 606 221 l 85 221 z m 85 243 l 85 265 l 606 265 l 606 243 l 606 221 l 85 221 z "},"":{"ha":675,"x_min":0,"x_max":0,"o":"m 583 720 l 591 700 l 207 547 l 591 393 l 583 373 l 575 353 l 141 527 l 90 547 l 141 567 l 575 741 z m 149 330 l 149 352 l 583 352 l 583 330 l 583 308 l 149 308 z m 149 156 l 149 178 l 583 178 l 583 156 l 583 135 l 149 135 z m 149 330 l 149 352 l 583 352 l 583 330 l 583 308 l 149 308 z m 149 156 l 149 178 l 583 178 l 583 156 l 583 135 l 149 135 z m 149 156 l 149 178 l 583 178 l 583 156 l 583 135 l 149 135 z "},"":{"ha":675,"x_min":0,"x_max":0,"o":"m 93 720 l 101 741 l 535 567 l 585 547 l 535 527 l 101 353 l 93 373 l 85 393 l 468 547 l 85 700 z m 93 330 l 93 352 l 527 352 l 527 330 l 527 308 l 93 308 z m 93 156 l 93 178 l 527 178 l 527 156 l 527 135 l 93 135 z m 93 330 l 93 352 l 527 352 l 527 330 l 527 308 l 93 308 z m 93 156 l 93 178 l 527 178 l 527 156 l 527 135 l 93 135 z m 93 156 l 93 178 l 527 178 l 527 156 l 527 135 l 93 135 z "},"":{"ha":631,"x_min":0,"x_max":0,"o":"m 542 634 l 542 612 l 287 612 l 207 572 l 169 534 l 130 455 l 130 378 l 169 299 l 207 261 l 287 221 l 542 221 l 542 200 l 542 178 l 281 178 l 276 178 l 272 180 l 185 224 l 182 225 l 179 228 l 136 271 l 133 274 l 132 277 l 88 364 l 86 368 l 86 373 l 86 460 l 86 465 l 88 470 l 132 557 l 133 560 l 136 562 l 179 606 l 182 608 l 185 610 l 272 653 l 276 655 l 281 655 l 542 655 z "},"":{"ha":631,"x_min":0,"x_max":0,"o":"m 88 634 l 88 655 l 348 655 l 353 655 l 358 653 l 444 610 l 448 608 l 450 606 l 493 562 l 496 560 l 498 557 l 541 470 l 543 465 l 543 460 l 543 373 l 543 368 l 541 364 l 498 277 l 496 274 l 493 271 l 450 228 l 448 225 l 444 224 l 358 180 l 353 178 l 348 178 l 88 178 l 88 200 l 88 221 l 343 221 l 422 261 l 460 299 l 500 378 l 500 455 l 460 534 l 422 572 l 343 612 l 88 612 z "}}}
